<svg enable-background="new 0 0 405.333 405.333" viewBox="0 0 405.333 405.333" xmlns="http://www.w3.org/2000/svg"><path d="m10.667 234.667c-5.867 0-10.667 4.8-10.667 10.666 0 5.867 4.8 10.667 10.667 10.667s10.667-4.8 10.667-10.667c-.001-5.866-4.801-10.666-10.667-10.666z"/><path d="m10.667 149.333c-5.867 0-10.667 4.8-10.667 10.667s4.8 10.667 10.667 10.667 10.667-4.8 10.667-10.667c-.001-5.867-4.801-10.667-10.667-10.667z"/><path d="m160 384c-5.867 0-10.667 4.8-10.667 10.667s4.8 10.667 10.667 10.667 10.667-4.8 10.667-10.667-4.8-10.667-10.667-10.667z"/><path d="m74.667 53.333c-11.733 0-21.333 9.6-21.333 21.333s9.599 21.334 21.333 21.334 21.333-9.6 21.333-21.333-9.6-21.334-21.333-21.334z"/><path d="m74.667 138.667c-11.733 0-21.333 9.6-21.333 21.333s9.6 21.333 21.333 21.333 21.333-9.6 21.333-21.333-9.6-21.333-21.333-21.333z"/><path d="m74.667 224c-11.733 0-21.333 9.6-21.333 21.333s9.6 21.333 21.333 21.333 21.333-9.599 21.333-21.333c0-11.733-9.6-21.333-21.333-21.333z"/><path d="m394.667 170.667c5.867 0 10.667-4.8 10.667-10.667s-4.8-10.667-10.667-10.667-10.667 4.8-10.667 10.667 4.8 10.667 10.667 10.667z"/><path d="m245.333 21.333c5.867 0 10.667-4.8 10.667-10.667 0-5.866-4.8-10.666-10.667-10.666s-10.667 4.8-10.667 10.667c.001 5.866 4.801 10.666 10.667 10.666z"/><path d="m160 96c11.733 0 21.333-9.6 21.333-21.333s-9.6-21.333-21.333-21.333-21.333 9.6-21.333 21.333 9.6 21.333 21.333 21.333z"/><path d="m160 21.333c5.867 0 10.667-4.8 10.667-10.667 0-5.866-4.8-10.666-10.667-10.666s-10.667 4.8-10.667 10.667c0 5.866 4.8 10.666 10.667 10.666z"/><path d="m245.333 96c11.733 0 21.333-9.6 21.333-21.333s-9.6-21.333-21.333-21.333-21.333 9.6-21.333 21.333 9.6 21.333 21.333 21.333z"/><path d="m74.667 309.333c-11.733 0-21.333 9.6-21.333 21.333s9.6 21.333 21.333 21.333 21.333-9.599 21.333-21.332c0-11.734-9.6-21.334-21.333-21.334z"/><path d="m245.333 128c-17.707 0-32 14.293-32 32s14.293 32 32 32 32-14.293 32-32-14.293-32-32-32z"/><path d="m330.667 224c-11.733 0-21.333 9.6-21.333 21.333s9.6 21.333 21.333 21.333 21.333-9.6 21.333-21.333-9.6-21.333-21.333-21.333z"/><path d="m330.667 309.333c-11.733 0-21.333 9.6-21.333 21.333s9.6 21.333 21.333 21.333c11.733.001 21.333-9.599 21.333-21.332 0-11.734-9.6-21.334-21.333-21.334z"/><path d="m330.667 138.667c-11.733 0-21.333 9.6-21.333 21.333s9.6 21.333 21.333 21.333 21.333-9.6 21.333-21.333-9.6-21.333-21.333-21.333z"/><path d="m394.667 234.667c-5.867 0-10.667 4.8-10.667 10.667 0 5.866 4.8 10.666 10.667 10.666s10.667-4.8 10.667-10.667c-.001-5.866-4.801-10.666-10.667-10.666z"/><path d="m330.667 53.333c-11.733 0-21.333 9.6-21.333 21.333s9.599 21.334 21.333 21.334c11.733 0 21.333-9.6 21.333-21.333s-9.6-21.334-21.333-21.334z"/><path d="m160 213.333c-17.707 0-32 14.293-32 32s14.293 32 32 32 32-14.293 32-32-14.293-32-32-32z"/><path d="m160 309.333c-11.733 0-21.333 9.6-21.333 21.333s9.6 21.333 21.333 21.333 21.333-9.6 21.333-21.333-9.6-21.333-21.333-21.333z"/><path d="m160 128c-17.707 0-32 14.293-32 32s14.293 32 32 32 32-14.293 32-32-14.293-32-32-32z"/><path d="m245.333 309.333c-11.733 0-21.333 9.6-21.333 21.333 0 11.734 9.6 21.334 21.333 21.334s21.333-9.6 21.333-21.333c.001-11.734-9.599-21.334-21.333-21.334z"/><path d="m245.333 384c-5.867 0-10.667 4.8-10.667 10.667s4.8 10.667 10.667 10.667 10.667-4.8 10.667-10.667-4.8-10.667-10.667-10.667z"/><path d="m245.333 213.333c-17.707 0-32 14.293-32 32s14.293 32 32 32 32-14.293 32-32-14.293-32-32-32z"/></svg>