<svg enable-background="new 0 0 29.711 29.71" height="29.71" viewBox="0 0 29.711 29.71" width="29.711" xmlns="http://www.w3.org/2000/svg"><path d="m10.161 10.518c-3.367-3.754-7.695-5.119-7.767-5.135-1.066-.231-2.118.445-2.349 1.511-.231 1.065.445 2.116 1.51 2.347 0 0 4.669.763 8.579 5.486 3.251 3.927 3.984 10.042 3.984 10.042l.01.06c.049.283.304.492.6.479.317-.018.563-.289.548-.606 0-.003.135-8.628-5.115-14.184z"/><path d="m17.606 18.373s-.429-4.019 3.179-7.631c2.94-2.946 7.369-3.315 7.465-3.341 1.055-.285 1.676-1.37 1.393-2.423-.284-1.054-1.37-1.676-2.425-1.391 0 0-2.638.885-4.353 1.899-7.588 4.489-6.383 12.846-6.383 12.846.011.272.219.505.499.538.31.035.589-.186.625-.497z"/><path d="m20.646 20.259c3.897-4.53 7.34-5.054 7.393-5.075.751-.32 1.102-1.19.78-1.942-.32-.751-1.189-1.101-1.941-.78 0 0-2.5.878-5.063 3.371-5.254 4.83-4.456 11.583-4.456 11.583.004.226.176.415.403.438.247.023.469-.155.491-.402-.003-.002.231-4.684 2.393-7.193z"/><path d="m7.991 3.251.013.003s1.627.125 3.636 2.673c2.242 2.844 2.684 7.216 2.684 7.216.033.18.193.313.381.309.209-.005.375-.179.37-.388 0 0 .396-5.188-2.375-9.391-1.75-2.654-4.055-3.314-4.137-3.331-.804-.157-1.583.365-1.742 1.169-.156.803.367 1.583 1.17 1.74z"/><path d="m7.555 21.289c-2.6-1.086-4.886-.97-4.97-.957-.809.124-1.365.88-1.242 1.689.124.811.88 1.366 1.69 1.243 0 0 2.534-.48 4.92.407 3.463 1.291 4.593 5.537 4.593 5.537.037.127.162.215.298.199.153-.018.263-.155.247-.309-.002.002.219-5.282-5.536-7.809z"/><path d="m27.709 22.17-.025-.002s-1.203-.438-3.704.638c-3.671 1.574-3.838 5.927-3.838 5.927-.022.122.038.249.155.304.141.063.305.004.368-.136 0 0 .792-2.822 3.371-3.836 1.57-.617 3.243.061 3.37.072.818.084 1.551-.513 1.634-1.331.083-.82-.513-1.552-1.331-1.636z"/><path d="m17.15 4.053c.021.083.087.146.169.167.083.02.17-.006.228-.069l.842-.917 1.202-.319c.083-.022.146-.087.167-.169.021-.083-.006-.169-.067-.228l-.917-.84-.319-1.203c-.021-.082-.087-.146-.169-.167-.083-.02-.17.006-.229.069l-.843.917-1.202.319c-.082.022-.146.087-.166.169-.021.083.007.17.067.228l.917.841z"/><path d="m5.027 18.668c.022.083.087.146.169.167.083.021.169-.006.227-.068l.841-.917 1.203-.317c.082-.021.146-.088.166-.169.021-.084-.006-.17-.068-.229l-.917-.842-.318-1.202c-.022-.082-.087-.146-.169-.166-.083-.021-.17.005-.228.067l-.841.918-1.203.318c-.083.021-.146.087-.167.169-.02.083.006.17.069.229l.917.841z"/><path d="m23.231 10.263c-.022-.083-.088-.146-.17-.167-.082-.02-.169.006-.228.069l-.841.917-1.203.319c-.082.022-.146.087-.166.169-.021.083.006.17.068.228l.918.84.317 1.203c.021.082.087.146.169.166.083.021.17-.005.229-.068l.841-.917 1.203-.319c.082-.022.146-.087.166-.169.021-.083-.006-.17-.069-.228l-.917-.841z"/><path d="m28.539 18.494-.318-1.203c-.021-.082-.088-.146-.17-.166-.083-.021-.169.006-.227.068l-.841.917-1.203.318c-.082.021-.146.087-.166.169-.021.082.006.169.068.228l.917.841.317 1.203c.022.083.087.146.169.167.083.021.169-.007.229-.067l.841-.918 1.203-.318c.082-.021.146-.087.166-.169.021-.083-.007-.169-.069-.228z"/><path d="m1.979 3.392.319 1.203c.022.082.087.146.169.166.083.021.17-.006.228-.069l.841-.917 1.203-.318c.081-.023.145-.087.165-.17s-.007-.169-.07-.227l-.917-.841-.318-1.203c-.022-.082-.087-.146-.169-.166-.083-.02-.17.006-.227.069l-.843.917-1.201.319c-.082.022-.147.087-.167.169s.007.17.069.227z"/></svg>