<svg enable-background="new 0 0 59.167 59.167" height="59.167" viewBox="0 0 59.167 59.167" width="59.167" xmlns="http://www.w3.org/2000/svg"><path d="m46.663 59.167h-44.166c-1.291 0-2.337-1.046-2.337-2.337v-44.165c0-1.291 1.046-2.337 2.337-2.337h44.166c1.291 0 2.337 1.047 2.337 2.337v44.165c0 1.29-1.046 2.337-2.337 2.337zm-41.829-4.675h39.491v-39.49h-39.491z"/><path d="m56.67 48.84h-4.745c-1.291 0-2.337-1.047-2.337-2.337 0-1.291 1.046-2.337 2.337-2.337h2.408v-39.491h-39.492v2.6c0 1.291-1.046 2.337-2.337 2.337s-2.337-1.047-2.337-2.337v-4.938c0-1.29 1.046-2.337 2.337-2.337h44.166c1.291 0 2.337 1.047 2.337 2.337v44.166c0 1.29-1.046 2.337-2.337 2.337z"/></svg>