<svg height="511pt" viewBox="0 0 511.99887 511" width="511pt" xmlns="http://www.w3.org/2000/svg"><path d="m509.804688 138.890625c-4.308594-7.074219-13.539063-9.316406-20.613282-5.003906-7.234375 4.40625-14.820312 8.082031-22.648437 11.019531l-98.949219-98.953125c2.9375-7.824219 6.609375-15.414063 11.019531-22.648437 4.308594-7.074219 2.070313-16.300782-5.007812-20.613282-7.070313-4.308594-16.300781-2.066406-20.613281 5.003906-7.199219 11.816407-12.796876 24.40625-16.777344 37.433594-.109375.316406-.210938.632813-.292969.953125-8.523437 28.5-9.253906 59.058594-1.746094 88.242188-56.25-14.5-116.085937 1.714843-157.363281 42.988281-41.273438 41.273438-57.484375 101.109375-42.988281 157.359375-29.1875-7.507813-59.753907-6.777344-88.261719 1.75-.304688.082031-.601562.179687-.902344.277344-13.035156 3.984375-25.636718 9.585937-37.460937 16.792969-7.078125 4.308593-9.316407 13.539062-5.007813 20.613281 4.3125 7.074219 13.542969 9.316406 20.613282 5.003906 7.234374-4.40625 14.824218-8.082031 22.652343-11.019531l98.949219 98.953125c-2.933594 7.828125-6.609375 15.414062-11.019531 22.648437-4.308594 7.074219-2.070313 16.304688 5.007812 20.613282 2.4375 1.484374 5.128907 2.191406 7.789063 2.191406 5.058594 0 10-2.558594 12.824218-7.195313 7.199219-11.816406 12.796876-24.40625 16.777344-37.433593.109375-.316407.207032-.628907.292969-.953126 8.523437-28.503906 9.253906-59.0625 1.746094-88.25 13.582031 3.503907 27.367187 5.21875 41.054687 5.21875 43.003906 0 84.996094-16.890624 116.308594-48.199218 41.273438-41.273438 57.484375-101.105469 42.988281-157.351563 13.460938 3.460938 27.21875 5.175781 40.929688 5.175781 15.914062 0 31.761719-2.324218 47.03125-6.863281.445312-.109375.890625-.238281 1.328125-.390625 12.992187-3.980468 25.550781-9.566406 37.335937-16.75 7.074219-4.308594 9.316407-13.539062 5.003907-20.613281zm-178.707032 25.699219 12.988282 3.820312 3.820312 12.988282c4.9375 16.785156 6.460938 34.039062 4.835938 50.878906l-72.523438-72.527344c16.835938-1.621094 34.09375-.097656 50.878906 4.839844zm-7.121094 138.675781-114.742187-114.746094c11.136719-8.894531 23.484375-15.863281 36.550781-20.777343l98.96875 98.96875c-4.914062 13.066406-11.878906 25.417968-20.777344 36.554687zm-57.761718 41.988281-98.972656-98.96875c4.917968-13.066406 11.882812-25.417968 20.777343-36.554687l114.746094 114.746093c-11.136719 8.894532-23.484375 15.863282-36.550781 20.777344zm-186.304688 14.863282c16.945313-1.632813 34.21875-.078126 50.851563 4.8125l12.984375 3.820312 3.820312 12.984375c4.890625 16.636719 6.449219 33.910156 4.8125 50.855469zm100.988282-11.710938-12.984376-3.820312-3.820312-12.988282c-4.9375-16.785156-6.464844-34.039062-4.839844-50.878906l72.523438 72.523438c-16.835938 1.625-34.09375.101562-50.878906-4.835938zm200.339843-200.339844-12.988281-3.820312-3.816406-12.984375c-4.894532-16.636719-6.449219-33.910157-4.816406-50.855469l72.476562 72.472656c-16.949219 1.636719-34.222656.082032-50.855469-4.8125zm0 0"/></svg>