<svg enable-background="new 0 0 197.973 197.973" viewBox="0 0 197.973 197.973" xmlns="http://www.w3.org/2000/svg"><path d="m119.467 197.973h-116.054c-1.886 0-3.413-1.527-3.413-3.413v-116.053c0-1.886 1.527-3.413 3.413-3.413h116.053c1.886 0 3.413 1.527 3.413 3.413v116.053c.001 1.886-1.526 3.413-3.412 3.413zm-112.64-6.826h109.227v-109.227h-109.227z"/><path d="m194.56 122.88h-6.827c-1.886 0-3.413-1.527-3.413-3.413s1.527-3.413 3.413-3.413h3.413v-3.413c0-1.886 1.527-3.413 3.413-3.413s3.413 1.527 3.413 3.413v6.827c.001 1.885-1.526 3.412-3.412 3.412z"/><path d="m178.423 122.88h-9.31c-1.886 0-3.413-1.527-3.413-3.413s1.527-3.413 3.413-3.413h9.31c1.886 0 3.413 1.527 3.413 3.413.001 1.886-1.527 3.413-3.413 3.413zm-18.616 0h-9.31c-1.886 0-3.413-1.527-3.413-3.413s1.527-3.413 3.413-3.413h9.31c1.886 0 3.413 1.527 3.413 3.413s-1.527 3.413-3.413 3.413z"/><path d="m141.187 122.88h-9.31c-1.886 0-3.413-1.527-3.413-3.413s1.527-3.413 3.413-3.413h9.31c1.886 0 3.413 1.527 3.413 3.413.001 1.886-1.527 3.413-3.413 3.413zm-18.618 0h-9.31c-1.886 0-3.413-1.527-3.413-3.413s1.527-3.413 3.413-3.413h9.31c1.886 0 3.413 1.527 3.413 3.413.001 1.886-1.525 3.413-3.413 3.413zm-18.619 0h-9.31c-1.886 0-3.413-1.527-3.413-3.413s1.527-3.413 3.413-3.413h9.31c1.886 0 3.413 1.527 3.413 3.413s-1.526 3.413-3.413 3.413z"/><path d="m85.333 122.88h-6.827c-1.886 0-3.413-1.527-3.413-3.413v-6.827c0-1.886 1.527-3.413 3.413-3.413s3.413 1.527 3.413 3.413v3.413h3.413c1.886 0 3.413 1.527 3.413 3.413.002 1.887-1.526 3.414-3.412 3.414z"/><path d="m78.507 106.743c-1.886 0-3.413-1.527-3.413-3.413v-9.31c0-1.886 1.527-3.413 3.413-3.413s3.413 1.527 3.413 3.413v9.31c0 1.886-1.527 3.413-3.413 3.413zm0-18.616c-1.886 0-3.413-1.527-3.413-3.413v-9.31c0-1.886 1.527-3.413 3.413-3.413s3.413 1.527 3.413 3.413v9.31c0 1.886-1.527 3.413-3.413 3.413z"/><path d="m78.507 69.507c-1.886 0-3.413-1.527-3.413-3.413v-9.31c0-1.886 1.527-3.413 3.413-3.413s3.413 1.527 3.413 3.413v9.31c0 1.886-1.527 3.413-3.413 3.413zm0-18.618c-1.886 0-3.413-1.527-3.413-3.413v-9.31c0-1.886 1.527-3.413 3.413-3.413s3.413 1.527 3.413 3.413v9.31c0 1.888-1.527 3.413-3.413 3.413zm0-18.619c-1.886 0-3.413-1.527-3.413-3.413v-9.31c0-1.886 1.527-3.413 3.413-3.413s3.413 1.527 3.413 3.413v9.31c0 1.887-1.527 3.413-3.413 3.413z"/><path d="m78.507 13.653c-1.886 0-3.413-1.527-3.413-3.413v-6.827c-.001-1.886 1.527-3.413 3.413-3.413h6.827c1.886 0 3.413 1.527 3.413 3.413s-1.527 3.413-3.413 3.413h-3.414v3.413c0 1.887-1.527 3.414-3.413 3.414z"/><path d="m122.569 6.827h-9.31c-1.886 0-3.413-1.527-3.413-3.413s1.528-3.414 3.414-3.414h9.31c1.886 0 3.413 1.527 3.413 3.413s-1.526 3.414-3.414 3.414zm-18.616 0h-9.31c-1.886 0-3.413-1.527-3.413-3.413s1.527-3.414 3.413-3.414h9.31c1.886 0 3.413 1.527 3.413 3.413s-1.525 3.414-3.413 3.414z"/><path d="m178.427 6.827h-9.31c-1.886 0-3.413-1.527-3.413-3.413s1.527-3.414 3.413-3.414h9.31c1.886 0 3.413 1.527 3.413 3.413s-1.527 3.414-3.413 3.414zm-18.62 0h-9.31c-1.886 0-3.413-1.527-3.413-3.413s1.527-3.414 3.413-3.414h9.31c1.886 0 3.413 1.527 3.413 3.413s-1.527 3.414-3.413 3.414zm-18.616 0h-9.31c-1.886 0-3.413-1.527-3.413-3.413s1.527-3.414 3.413-3.414h9.31c1.886 0 3.413 1.527 3.413 3.413s-1.527 3.414-3.413 3.414z"/><path d="m194.56 13.653c-1.886 0-3.413-1.527-3.413-3.413v-3.413h-3.413c-1.886 0-3.413-1.527-3.413-3.413s1.526-3.414 3.412-3.414h6.827c1.886 0 3.413 1.527 3.413 3.413v6.827c0 1.886-1.527 3.413-3.413 3.413z"/><path d="m194.56 50.889c-1.886 0-3.413-1.527-3.413-3.413v-9.31c0-1.886 1.527-3.413 3.413-3.413s3.413 1.527 3.413 3.413v9.31c0 1.888-1.527 3.413-3.413 3.413zm0-18.616c-1.886 0-3.413-1.527-3.413-3.413v-9.31c0-1.886 1.527-3.413 3.413-3.413s3.413 1.527 3.413 3.413v9.31c0 1.887-1.527 3.413-3.413 3.413z"/><path d="m194.56 106.747c-1.886 0-3.413-1.527-3.413-3.413v-9.31c0-1.886 1.527-3.413 3.413-3.413s3.413 1.527 3.413 3.413v9.31c0 1.885-1.527 3.413-3.413 3.413zm0-18.62c-1.886 0-3.413-1.527-3.413-3.413v-9.31c0-1.886 1.527-3.413 3.413-3.413s3.413 1.527 3.413 3.413v9.31c0 1.886-1.527 3.413-3.413 3.413zm0-18.616c-1.886 0-3.413-1.527-3.413-3.413v-9.31c0-1.886 1.527-3.413 3.413-3.413s3.413 1.527 3.413 3.413v9.31c0 1.885-1.527 3.413-3.413 3.413z"/></svg>