<svg height="32" viewBox="0 0 32 32" width="32" xmlns="http://www.w3.org/2000/svg"><path d="m29.561.439c-.586-.586-1.535-.586-2.121 0l-6.318 6.318c-1.623-.492-3.342-.757-5.122-.757-6.979 0-13.028 4.064-16 10 1.285 2.566 3.145 4.782 5.407 6.472l-4.968 4.968c-.586.586-.586 1.535 0 2.121.293.293.677.439 1.061.439s.768-.146 1.061-.439l27-27c.586-.586.586-1.536 0-2.121zm-16.561 9.561c1.32 0 2.44.853 2.841 2.037l-3.804 3.804c-1.184-.401-2.037-1.521-2.037-2.841 0-1.657 1.343-3 3-3zm-9.559 6c1.197-1.891 2.79-3.498 4.67-4.697.122-.078.246-.154.371-.228-.311.854-.482 1.776-.482 2.737 0 1.715.54 3.304 1.459 4.607l-1.904 1.904c-1.639-1.151-3.038-2.621-4.114-4.323z"/><path d="m24 13.813c0-.849-.133-1.667-.378-2.434l-10.056 10.056c.768.245 1.586.378 2.435.378 4.418 0 8-3.582 8-8z"/><path d="m25.938 9.062-2.168 2.168c.04.025.079.049.118.074 1.88 1.199 3.473 2.805 4.67 4.697-1.197 1.891-2.79 3.498-4.67 4.697-2.362 1.507-5.09 2.303-7.889 2.303-1.208 0-2.403-.149-3.561-.439l-2.403 2.403c1.866.671 3.873 1.036 5.964 1.036 6.978 0 13.027-4.064 16-10-1.407-2.81-3.504-5.2-6.062-6.938z"/></svg>