<?xml version="1.0" encoding="iso-8859-1"?>
<!-- Generator: Adobe Illustrator 19.0.0, SVG Export Plug-In . SVG Version: 6.00 Build 0)  -->
<svg version="1.1" id="Capa_1" xmlns="http://www.w3.org/2000/svg" xmlns:xlink="http://www.w3.org/1999/xlink" x="0px" y="0px"
	 viewBox="0 0 512 512" style="enable-background:new 0 0 512 512;" xml:space="preserve">
<g>
	<g>
		<g>
			<polygon points="400,0 400,32 457.376,32 394.176,95.2 416.8,117.824 480,54.624 480,112 512,112 512,0 			"/>
			<path d="M192,320h128V192H192V320z M224,224h64v64h-64V224z"/>
			<polygon points="32,54.624 95.2,117.824 117.824,95.2 54.624,32 112,32 112,0 0,0 0,112 32,112 			"/>
			<rect x="124.448" y="124.448" transform="matrix(-0.7071 -0.7071 0.7071 -0.7071 140.4486 339.0717)" width="32" height="32"/>
			<rect x="355.522" y="124.463" transform="matrix(-0.7071 -0.7071 0.7071 -0.7071 534.9046 502.4904)" width="32" height="32"/>
			<polygon points="95.2,394.176 32,457.376 32,400 0,400 0,512 112,512 112,480 54.624,480 117.824,416.8 			"/>
			<rect x="124.434" y="355.553" transform="matrix(-0.7071 -0.7071 0.7071 -0.7071 -22.9926 733.5828)" width="32" height="32"/>
			<polygon points="480,457.376 416.8,394.176 394.176,416.8 457.376,480 400,480 400,512 512,512 512,400 480,400 			"/>
			<rect x="355.507" y="355.52" transform="matrix(-0.7071 -0.7071 0.7071 -0.7071 371.4971 896.9194)" width="32" height="32"/>
		</g>
	</g>
</g>
<g>
</g>
<g>
</g>
<g>
</g>
<g>
</g>
<g>
</g>
<g>
</g>
<g>
</g>
<g>
</g>
<g>
</g>
<g>
</g>
<g>
</g>
<g>
</g>
<g>
</g>
<g>
</g>
<g>
</g>
</svg>
