<svg enable-background="new 0 0 24.547 24.547" viewBox="0 0 24.547 24.547" xmlns="http://www.w3.org/2000/svg"><g fill="#030104"><path d="m5.285 24.082c-.111 0-.217-.041-.298-.12l-4.866-4.879c-.161-.159-.161-.422 0-.585l4.866-4.885c.119-.117.298-.155.454-.089.156.06.256.215.256.384v3.021h13.335c.369 0 .67-.301.67-.668v-3.4c0-.111.043-.216.119-.295l3.256-3.269c.118-.118.3-.156.454-.091.157.066.258.22.258.386v7.391c0 2.64-1.395 4.034-4.033 4.034h-14.058v2.652c0 .167-.1.318-.256.38-.05.021-.107.033-.157.033z"/><path d="m1.171 15.378c-.055 0-.108-.012-.159-.033-.156-.063-.258-.213-.258-.383v-7.39c0-2.641 1.392-4.033 4.033-4.033h14.064v-2.659c0-.165.101-.317.256-.385.158-.061.335-.031.455.092l4.864 4.875c.162.162.162.427 0 .588l-4.864 4.882c-.119.121-.296.158-.454.091-.155-.063-.256-.216-.256-.386v-3.014h-13.344c-.367 0-.664.3-.664.669v3.401c0 .11-.043.213-.124.296l-3.258 3.265c-.077.08-.181.124-.291.124z"/></g></svg>