<svg height="512pt" viewBox="0 -43 512.00003 512" width="512pt" xmlns="http://www.w3.org/2000/svg"><path d="m469.332031 51.410156h-156.160156l42.242187-36.191406c2.449219-1.941406 3.640626-5.066406 3.105469-8.144531-.535156-3.082031-2.710937-5.621094-5.671875-6.625-2.960937-1-6.230468-.304688-8.527344 1.816406l-59.734374 51.199219c-.085938.070312-.109376.171875-.1875.238281-.605469.597656-1.121094 1.277344-1.527344 2.023437-.183594.246094-.355469.503907-.511719.769532-1.011719 2.1875-1.011719 4.707031 0 6.894531.15625.265625.328125.519531.511719.765625.40625.746094.921875 1.429688 1.527344 2.023438.078124.070312.101562.171874.1875.238281l59.734374 51.203125c2.296876 2.121094 5.566407 2.816406 8.527344 1.8125 2.960938-1 5.136719-3.542969 5.671875-6.621094.535157-3.078125-.65625-6.203125-3.105469-8.148438l-42.242187-36.1875h156.160156c14.140625 0 25.601563 11.460938 25.601563 25.597657v290.136719c0 14.136718-11.460938 25.597656-25.601563 25.597656h-426.664062c-14.140625 0-25.601563-11.460938-25.601563-25.597656v-290.136719c0-14.136719 11.460938-25.597657 25.601563-25.597657h110.933593c4.710938 0 8.53125-3.820312 8.53125-8.535156 0-4.710937-3.820312-8.53125-8.53125-8.53125h-110.933593c-23.554688.027344-42.6406252 19.113282-42.667969 42.664063v290.136719c.0273438 23.550781 19.113281 42.636718 42.667969 42.664062h426.664062c23.554688-.027344 42.640625-19.113281 42.667969-42.664062v-290.136719c-.027344-23.550781-19.113281-42.636719-42.667969-42.664063zm0 0"/><path d="m190.488281 350.074219c3.695313.003906 7.316407-1.019531 10.464844-2.960938l148.058594-91.261719c5.820312-3.558593 9.371093-9.886718 9.371093-16.707031 0-6.824219-3.550781-13.152343-9.371093-16.710937l-148.058594-91.246094c-6.152344-3.785156-13.871094-3.953125-20.183594-.433594-6.265625 3.417969-10.144531 10.003906-10.101562 17.140625v182.496094c-.035157 7.128906 3.84375 13.707031 10.101562 17.125 2.96875 1.667969 6.316407 2.546875 9.71875 2.558594zm-2.753906-202.179688c-.011719-.941406.507813-1.804687 1.347656-2.234375.433594-.246094.925781-.378906 1.425781-.382812.527344 0 1.046876.15625 1.492188.441406l148.085938 91.246094c.753906.46875 1.214843 1.292968 1.214843 2.179687 0 .882813-.460937 1.707031-1.214843 2.175781l-148.085938 91.253907c-.886719.566406-2.015625.585937-2.917969.050781-.839843-.429688-1.359375-1.292969-1.347656-2.234375zm0 0"/></svg>