<svg enable-background="new 0 0 507.487 507.487" height="512" viewBox="0 0 507.487 507.487" width="512" xmlns="http://www.w3.org/2000/svg"><path d="m466.487 140.244h-12.487v-11.244c0-24.679-20.078-44.756-44.756-44.756h-311c-24.679 0-44.756 20.077-44.756 44.756v11.244h-12.488c-22.607 0-41 18.393-41 41v168c0 17.314 10.793 32.145 26 38.146v35.854h30v-33h389.272v33h30v-33.958c18.399-4.034 32.215-20.451 32.215-40.042v-168c0-22.608-18.392-41-41-41zm-383-11.244c0-8.137 6.62-14.756 14.756-14.756h311c8.137 0 14.756 6.619 14.756 14.756v11.244h-340.512zm394 220.244c0 6.065-4.935 11-11 11h-425.487c-6.065 0-11-4.935-11-11v-168c0-6.065 4.935-11 11-11h425.487c6.065 0 11 4.935 11 11z"/><path d="m373 195.187c-38.63 0-70.057 31.428-70.057 70.057s31.427 70.056 70.057 70.056 70.057-31.428 70.057-70.057-31.427-70.056-70.057-70.056zm0 110.113c-22.087 0-40.057-17.97-40.057-40.057s17.97-40.057 40.057-40.057 40.057 17.97 40.057 40.057-17.97 40.057-40.057 40.057z"/><path d="m83 250.244h110v30h-110z"/><path d="m232 250.244h35v30h-35z"/><path d="m357.5 250.244h31v30h-31z"/></svg>