<?xml version="1.0" encoding="iso-8859-1"?>
<!-- Generator: Adobe Illustrator 19.0.0, SVG Export Plug-In . SVG Version: 6.00 Build 0)  -->
<svg version="1.1" id="Capa_1" xmlns="http://www.w3.org/2000/svg" xmlns:xlink="http://www.w3.org/1999/xlink" x="0px" y="0px"
	 viewBox="0 0 384 384" style="enable-background:new 0 0 384 384;" xml:space="preserve">
<g>
	<g>
		<g>
			<rect x="0" y="85.333" width="42.667" height="42.667"/>
			<rect x="0" y="170.667" width="42.667" height="42.667"/>
			<path d="M0,42.667h42.667V0C19.093,0,0,19.093,0,42.667z"/>
			<rect x="0" y="256" width="42.667" height="42.667"/>
			<path d="M341.333,0v42.667H384C384,19.093,364.907,0,341.333,0z"/>
			<rect x="170.667" y="0" width="42.667" height="42.667"/>
			<path d="M42.667,384v-42.667H0C0,364.907,19.093,384,42.667,384z"/>
			<rect x="85.333" y="341.333" width="42.667" height="42.667"/>
			<rect x="85.333" y="0" width="42.667" height="42.667"/>
			<path d="M341.333,384C364.907,384,384,364.907,384,341.333h-42.667V384z"/>
			<rect x="341.333" y="170.667" width="42.667" height="42.667"/>
			<rect x="170.667" y="341.333" width="42.667" height="42.667"/>
			<rect x="341.333" y="85.333" width="42.667" height="42.667"/>
			<rect x="341.333" y="256" width="42.667" height="42.667"/>
			<rect x="256" y="341.333" width="42.667" height="42.667"/>
			<path d="M85.333,298.667h213.333V85.333H85.333V298.667z M128,128h128v128H128V128z"/>
			<rect x="256" y="0" width="42.667" height="42.667"/>
		</g>
	</g>
</g>
<g>
</g>
<g>
</g>
<g>
</g>
<g>
</g>
<g>
</g>
<g>
</g>
<g>
</g>
<g>
</g>
<g>
</g>
<g>
</g>
<g>
</g>
<g>
</g>
<g>
</g>
<g>
</g>
<g>
</g>
</svg>
