<svg height="512pt" viewBox="0 0 512 512" width="512pt" xmlns="http://www.w3.org/2000/svg"><path d="m375 392c16.539062 0 30-13.460938 30-30v-15c0-43.316406-36.441406-77.328125-79.042969-74.882812-39.125 2.035156-70.957031 37.925781-70.957031 79.980468v54.902344c0 56.175781 44.46875 101.820312 99.992188 104.496094 86.324218-5.210938 157.007812-76.886719 157.007812-164.496094v-15c0-103.242188-90.242188-189.480469-199.636719-179.148438-55.3125 5.265626-103.234375 37.578126-132.363281 83.582032v110.566406c0 24.8125 20.1875 45 45 45v-39.902344c0-57.757812 44.574219-107.078125 99.375-109.949218 62.886719-2.648438 110.625 46.621093 110.625 104.851562v15c0 33.089844-26.910156 60-60 60s-60-26.910156-60-60v-15c0-8.289062 6.710938-15 15-15s15 6.710938 15 15v15c0 16.539062 13.460938 30 30 30zm0 0"/><path d="m22.972656 58.582031 36.671875 101.871094c-17.675781 10.4375-29.644531 29.53125-29.644531 51.546875v165c0 74.558594 60.441406 135 135 135h111.195312c-27.21875-21.777344-45.582031-53.589844-49.679687-90h-1.515625c-41.351562 0-75-33.648438-75-75 0-4.125 0-140.472656 0-131.792969 0-22.398437-11.472656-43.570312-29.640625-54.792969l36.660156-101.832031c13.082031-3.230469 22.980469-14.503906 22.980469-28.582031 0-16.570312-13.429688-30-30-30s-30 13.429688-30 30c0 7.863281 3.183594 14.894531 8.132812 20.242188l-36.769531 102.132812c-.925781-.019531-1.875-.164062-2.789062-.144531l-36.710938-101.984375c4.949219-5.347656 8.136719-12.382813 8.136719-20.246094 0-16.570312-13.429688-30-30-30s-30 13.429688-30 30c0 14.074219 9.898438 25.347656 22.972656 28.582031zm82.027344 198.417969c0 8.289062-6.710938 15-15 15s-15-6.710938-15-15v-30c0-8.289062 6.710938-15 15-15s15 6.710938 15 15zm0 0"/></svg>