<svg enable-background="new 0 0 489.9 489.9" viewBox="0 0 489.9 489.9" xmlns="http://www.w3.org/2000/svg"><path d="m302.75 89.8c10.6-23.4 6.4-52-12.9-71.2-24.8-24.8-65.1-24.8-89.9 0s-24.8 65.1 0 89.9c19.3 19.3 47.8 23.5 71.2 12.9l74.3 74.3c3.9-6.4 8.5-12.4 13.9-17.8s11.4-10 17.7-13.8zm-39.9-8.5c-9.9 9.9-25.9 9.9-35.8 0s-9.9-25.9 0-35.8 25.9-9.9 35.8 0 9.9 25.9 0 35.8z"/><path d="m289.85 381.4c-19.3-19.3-47.8-23.5-71.2-12.9l-74.3-74.3c-3.8 6.3-8.4 12.3-13.8 17.7s-11.4 10-17.7 13.8l74.3 74.3c-10.7 23.5-6.4 52 12.8 71.3 24.8 24.8 65.1 24.8 89.9 0s24.8-65.1 0-89.9zm-27 62.9c-9.9 9.9-25.9 9.9-35.8 0s-9.9-25.9 0-35.8 25.9-9.9 35.8 0 9.9 25.9 0 35.8z"/><path d="m471.25 199.8c-24.7-24.7-65-24.7-89.8.1-19.3 19.3-23.5 47.8-12.9 71.2l-74.3 74.3c6.3 3.8 12.3 8.4 17.7 13.8s10 11.4 13.8 17.7l74.3-74.3c23.4 10.6 52 6.4 71.2-12.9 24.8-24.8 24.8-65.1 0-89.9zm-27 63c-9.9 9.9-25.9 9.9-35.8 0s-9.9-25.9 0-35.8 25.9-9.9 35.8 0 9.9 25.9 0 35.8z"/><path d="m195.65 144.4c-6.3-3.8-12.3-8.4-17.7-13.8s-10-11.4-13.8-17.7l-74.3 74.3c-23.4-10.6-52-6.4-71.2 12.9-24.8 24.8-24.8 65.1 0 89.9 24.7 24.7 65 24.7 89.8-.1 19.3-19.3 23.5-47.8 12.9-71.2zm-114.2 118.4c-9.9 9.9-25.9 9.9-35.8 0s-9.9-25.9 0-35.8 25.9-9.9 35.8 0 9.9 25.9 0 35.8z"/></svg>