<svg xmlns="http://www.w3.org/2000/svg" height="511pt" version="1.1" viewBox="-6 0 511 511.99957" width="511pt">
<g id="surface1">
<path d="M 499.136719 386.582031 C 499.144531 386.445312 499.144531 386.308594 499.148438 386.171875 C 499.164062 383.636719 498.8125 381.429688 498.554688 379.816406 C 498.46875 379.273438 498.351562 378.535156 498.335938 378.277344 C 498.332031 378.179688 498.324219 378.085938 498.316406 377.988281 L 498.054688 374.519531 C 497.992188 373.675781 497.859375 372.84375 497.65625 372.027344 L 496.804688 368.605469 C 496.78125 368.5 496.75 368.394531 496.722656 368.289062 C 496.617188 367.890625 496.484375 367.140625 496.355469 366.417969 C 496.105469 364.980469 495.792969 363.203125 495.207031 361.226562 C 492.628906 352.113281 488.667969 342.988281 482.746094 332.523438 C 482.625 332.3125 482.5 332.101562 482.371094 331.890625 C 477.34375 323.945312 470.960938 316.390625 462.292969 308.113281 C 462.105469 307.9375 461.917969 307.765625 461.722656 307.597656 C 453.464844 300.488281 444.257812 295.265625 436.339844 291.097656 C 435.785156 290.808594 435.21875 290.550781 434.632812 290.332031 C 426.4375 287.246094 416.652344 283.90625 406.222656 282.492188 C 405.945312 282.453125 405.667969 282.425781 405.390625 282.402344 C 394.214844 281.515625 385.105469 281.742188 376.722656 283.105469 C 376.445312 283.152344 376.167969 283.203125 375.890625 283.265625 C 365.46875 285.570312 357.222656 288.277344 349.957031 291.785156 C 348.179688 292.617188 346.742188 293.53125 345.683594 294.207031 C 345.355469 294.414062 344.90625 294.699219 344.828125 294.746094 C 344.742188 294.789062 344.65625 294.832031 344.570312 294.875 L 342.027344 296.164062 C 340.976562 296.695312 339.996094 297.347656 339.097656 298.109375 C 338.621094 298.515625 338.121094 298.910156 337.617188 299.28125 C 337.464844 299.398438 337.308594 299.515625 337.160156 299.636719 C 336.949219 299.777344 336.734375 299.90625 336.523438 300.035156 C 335.339844 300.769531 333.554688 301.878906 331.738281 303.570312 C 331.601562 303.695312 331.464844 303.828125 331.335938 303.960938 C 330.488281 304.808594 329.59375 305.59375 328.675781 306.296875 C 328.082031 306.75 327.527344 307.246094 327.007812 307.78125 L 325.941406 308.878906 C 321.148438 313.816406 315.75 319.371094 311.820312 326.449219 C 309.871094 329.109375 308.707031 331.710938 307.820312 333.695312 C 307.574219 334.246094 307.25 334.976562 307.074219 335.3125 C 305.152344 338.179688 304.457031 340.90625 304.066406 342.4375 L 304.050781 342.488281 C 303.925781 342.800781 303.8125 343.113281 303.710938 343.429688 C 303.675781 343.5 303.644531 343.570312 303.613281 343.636719 C 303.066406 344.804688 302.195312 346.671875 301.671875 349.160156 C 298.148438 362.550781 297.527344 376.4375 299.878906 389.355469 C 299.910156 389.519531 299.941406 389.683594 299.976562 389.847656 C 306.191406 418.523438 323.484375 433.441406 330.707031 438.566406 C 337.78125 443.671875 343.429688 446.3125 346.074219 447.511719 C 346.347656 447.6875 346.632812 447.851562 346.921875 448.007812 C 346.976562 448.035156 347.03125 448.054688 347.085938 448.082031 C 347.34375 448.21875 347.613281 448.339844 347.882812 448.460938 C 348.085938 448.554688 348.289062 448.648438 348.496094 448.730469 C 348.574219 448.761719 348.640625 448.800781 348.71875 448.828125 C 348.949219 448.917969 349.183594 448.984375 349.414062 449.058594 C 349.550781 449.105469 349.6875 449.15625 349.828125 449.195312 C 350.25 449.320312 350.679688 449.425781 351.105469 449.511719 C 351.128906 449.515625 351.152344 449.523438 351.175781 449.527344 C 351.21875 449.535156 351.261719 449.550781 351.304688 449.558594 C 353.988281 450.429688 359.886719 452.296875 368.050781 453.25 C 370.34375 453.558594 372.863281 453.730469 375.546875 453.730469 C 387.511719 453.730469 402.78125 450.320312 416.273438 440.589844 C 416.402344 440.496094 416.53125 440.402344 416.65625 440.304688 C 424.339844 434.378906 430.886719 426.558594 435.628906 417.65625 C 436.757812 415.800781 437.332031 414.058594 437.652344 412.882812 C 438.390625 411.550781 439.367188 409.414062 439.742188 406.660156 C 440.199219 405.371094 440.917969 403.296875 441.167969 400.613281 C 442.199219 396.046875 442.015625 391.808594 441.875 388.597656 C 441.839844 387.800781 441.804688 387.015625 441.796875 386.25 C 441.789062 385.167969 441.664062 384.085938 441.425781 383.03125 C 441.425781 383.003906 441.425781 382.972656 441.421875 382.949219 C 441.351562 380.621094 440.824219 378.734375 440.398438 377.492188 C 440.214844 375.757812 439.730469 374.0625 438.964844 372.488281 L 438.777344 372.101562 C 438.554688 371.230469 438.191406 370.019531 437.570312 368.675781 C 435.65625 364.398438 433.214844 360.859375 431.25 358.003906 L 430.402344 356.773438 C 430.058594 356.265625 429.679688 355.777344 429.273438 355.316406 C 426.292969 351.921875 423.078125 349.421875 420.492188 347.410156 C 420.054688 347.066406 419.621094 346.730469 419.195312 346.390625 C 418.675781 345.980469 418.132812 345.601562 417.5625 345.261719 C 414.425781 343.390625 411.421875 342.238281 409.007812 341.316406 C 408.128906 340.980469 407.304688 340.660156 406.683594 340.386719 C 405.882812 340.035156 405.050781 339.75 404.199219 339.542969 C 386.09375 335.105469 366.652344 342.910156 358.976562 357.695312 C 355.160156 365.046875 358.023438 374.101562 365.378906 377.917969 C 372.730469 381.734375 381.785156 378.871094 385.601562 371.519531 C 386.144531 370.515625 390.070312 367.402344 396.09375 368.476562 C 396.855469 368.785156 397.589844 369.066406 398.269531 369.328125 C 399.5 369.796875 400.671875 370.246094 401.5625 370.6875 C 401.730469 370.816406 401.898438 370.949219 402.066406 371.078125 C 403.648438 372.3125 405.15625 373.484375 406.253906 374.597656 L 406.550781 375.03125 C 407.847656 376.910156 409.082031 378.699219 409.890625 380.308594 C 410.085938 381.082031 410.390625 382.140625 410.902344 383.335938 C 411.074219 384.308594 411.304688 385.152344 411.527344 385.839844 C 411.59375 386.601562 411.699219 387.367188 411.835938 388.128906 C 411.855469 388.710938 411.878906 389.304688 411.90625 389.898438 C 411.964844 391.242188 412.054688 393.257812 411.914062 393.964844 C 411.601562 394.980469 411.398438 396.027344 411.308594 397.082031 C 411.035156 397.859375 410.695312 398.878906 410.417969 400.113281 C 410.183594 400.59375 409.945312 401.140625 409.722656 401.75 C 409.40625 402.523438 409.179688 403.230469 409.011719 403.8125 C 406.316406 408.792969 402.703125 413.128906 398.527344 416.398438 C 389.757812 422.636719 378.902344 424.460938 372.003906 423.507812 C 371.882812 423.488281 371.761719 423.472656 371.644531 423.460938 C 366.148438 422.832031 362.378906 421.605469 360.351562 420.949219 C 360.128906 420.875 359.917969 420.820312 359.703125 420.757812 C 359.359375 420.59375 359.050781 420.449219 358.785156 420.332031 C 356.828125 419.441406 353.183594 417.789062 348.226562 414.203125 C 348.183594 414.171875 348.140625 414.140625 348.09375 414.109375 C 344.742188 411.738281 333.511719 402.558594 329.351562 383.734375 C 327.8125 375.054688 328.308594 365.609375 330.789062 356.40625 C 330.800781 356.359375 330.816406 356.308594 330.828125 356.257812 C 331.148438 355.574219 331.617188 354.554688 332.050781 353.296875 C 332.492188 352.191406 332.78125 351.195312 332.984375 350.433594 C 333.941406 348.777344 334.632812 347.222656 335.214844 345.925781 C 335.484375 345.320312 335.847656 344.503906 336.046875 344.144531 C 336.714844 343.332031 337.292969 342.449219 337.773438 341.515625 C 339.707031 337.757812 343.300781 334.058594 347.460938 329.773438 L 347.839844 329.382812 C 349.25 328.253906 350.621094 327.046875 351.929688 325.773438 C 352.070312 325.6875 352.210938 325.605469 352.347656 325.519531 C 353.238281 324.964844 354.429688 324.226562 355.734375 323.191406 C 356.175781 322.859375 356.613281 322.523438 357.046875 322.175781 L 358.03125 321.679688 C 359.570312 320.921875 360.851562 320.105469 361.796875 319.503906 C 362.121094 319.300781 362.550781 319.027344 362.742188 318.917969 C 362.800781 318.890625 362.863281 318.859375 362.921875 318.832031 C 367.96875 316.390625 374.019531 314.417969 381.941406 312.644531 C 387.691406 311.753906 394.277344 311.632812 402.59375 312.269531 C 409.597656 313.269531 416.609375 315.617188 423.191406 318.074219 C 429.582031 321.460938 436.203125 325.269531 441.867188 330.082031 C 448.449219 336.394531 453.21875 341.984375 456.824219 347.621094 C 461.445312 355.832031 464.480469 362.78125 466.363281 369.464844 C 466.386719 369.542969 466.410156 369.625 466.433594 369.703125 C 466.535156 370.042969 466.679688 370.867188 466.808594 371.597656 C 467.023438 372.8125 467.285156 374.316406 467.726562 375.96875 L 468.234375 378.023438 L 468.394531 380.113281 C 468.496094 381.828125 468.738281 383.320312 468.929688 384.53125 C 469.007812 385.019531 469.113281 385.675781 469.144531 385.992188 C 469.078125 388.28125 469.097656 390.628906 469.210938 392.988281 C 468.703125 401.445312 468.058594 408.964844 465.804688 415.214844 C 465.515625 416.007812 465.296875 416.824219 465.148438 417.65625 C 464.945312 418.804688 464.203125 420.53125 463.421875 422.359375 C 462.65625 424.144531 461.792969 426.160156 461.042969 428.457031 C 460.949219 428.613281 460.851562 428.769531 460.753906 428.925781 C 460.230469 429.769531 459.550781 430.871094 458.886719 432.230469 C 458.226562 433.410156 457.730469 434.484375 457.316406 435.378906 C 457.160156 435.714844 456.957031 436.152344 456.835938 436.390625 C 456.667969 436.625 456.507812 436.867188 456.351562 437.109375 C 448.351562 449.761719 437.539062 460.511719 425.085938 468.195312 C 414.191406 474.726562 401.871094 479.035156 388.464844 481 C 388.382812 481.011719 388.296875 481.023438 388.214844 481.039062 C 377.136719 482.851562 367.046875 481.785156 357.785156 480.332031 C 355.515625 479.855469 353.222656 479.4375 350.953125 479.082031 C 350.515625 478.960938 349.914062 478.75 349.324219 478.550781 C 348.402344 478.230469 347.363281 477.875 346.175781 477.542969 C 344.429688 477.015625 342.675781 476.523438 340.953125 476.074219 C 340.820312 476.011719 340.695312 475.945312 340.566406 475.886719 C 339.980469 475.601562 339.203125 475.226562 338.277344 474.855469 C 335.109375 473.484375 332.714844 472.554688 331.226562 472 C 329.871094 471.195312 327.644531 469.921875 324.539062 468.292969 C 323.675781 467.8125 322.894531 467.441406 322.300781 467.160156 C 322.152344 467.085938 321.992188 467.019531 321.835938 466.941406 C 320.269531 465.785156 318.78125 464.734375 317.308594 463.738281 C 316.316406 463.03125 315.382812 462.441406 314.546875 461.917969 C 313.964844 461.554688 313.367188 461.179688 312.957031 460.882812 C 311.191406 459.292969 309.359375 457.71875 307.5 456.199219 C 300.460938 449.859375 292.476562 441.921875 286.28125 431.097656 C 286.242188 431.03125 286.203125 430.960938 286.164062 430.894531 C 278.355469 417.738281 273.34375 403.628906 271.269531 388.960938 C 268.960938 371.179688 270.929688 352.425781 276.960938 334.71875 C 276.972656 334.695312 276.976562 334.667969 276.984375 334.644531 C 277.023438 334.527344 277.058594 334.410156 277.09375 334.292969 C 277.140625 334.144531 277.191406 334 277.230469 333.847656 C 277.339844 333.46875 277.835938 332.417969 278.199219 331.648438 C 278.675781 330.648438 279.25 329.429688 279.796875 328.066406 C 280.457031 326.644531 280.949219 325.324219 281.355469 324.234375 C 281.574219 323.648438 281.867188 322.855469 282.027344 322.519531 C 282.113281 322.386719 282.199219 322.253906 282.285156 322.121094 C 283.605469 319.988281 284.710938 317.921875 285.785156 315.921875 C 287.277344 313.144531 288.683594 310.519531 290.199219 308.683594 C 290.621094 308.167969 291.007812 307.628906 291.359375 307.066406 C 296.808594 298.320312 304.859375 290.539062 312.804688 283.425781 C 315.25 281.578125 317.738281 279.613281 320.207031 277.574219 C 320.894531 277.039062 321.996094 276.378906 323.160156 275.679688 C 324.410156 274.929688 325.824219 274.078125 327.308594 273.054688 L 330.445312 270.96875 L 333.839844 269.304688 C 335.449219 268.546875 336.9375 267.746094 338.253906 267.042969 C 339.199219 266.535156 340.105469 266.050781 340.929688 265.648438 C 363.113281 260.988281 383.988281 251.523438 401.40625 238.191406 C 401.445312 238.160156 401.484375 238.128906 401.523438 238.097656 C 416.324219 226.53125 428.621094 212.148438 438.078125 195.347656 C 446.523438 180.8125 450.183594 166.945312 452.648438 155.289062 C 452.699219 155.042969 452.746094 154.800781 452.785156 154.554688 C 453.136719 152.355469 453.542969 150.195312 453.996094 148.125 C 454.066406 147.808594 454.125 147.484375 454.171875 147.164062 C 454.5 145.003906 454.570312 143.121094 454.628906 141.609375 C 454.652344 140.984375 454.675781 140.339844 454.710938 140.007812 C 454.730469 139.839844 454.742188 139.671875 454.753906 139.503906 C 454.875 137.820312 455.03125 136.171875 455.21875 134.53125 C 455.492188 132.042969 455.324219 130 455.210938 128.648438 C 455.199219 128.472656 455.183594 128.304688 455.171875 128.140625 C 455.171875 127.96875 455.167969 127.800781 455.160156 127.628906 C 454.964844 122.972656 455.054688 120.480469 455.058594 120.453125 C 455.0625 120.324219 455.050781 120.199219 455.054688 120.074219 C 455.058594 119.882812 455.050781 119.691406 455.050781 119.5 C 455.042969 119.207031 455.035156 118.917969 455.011719 118.632812 C 454.992188 118.378906 454.960938 118.125 454.929688 117.871094 C 454.898438 117.648438 454.871094 117.425781 454.832031 117.203125 C 454.8125 117.089844 454.804688 116.976562 454.78125 116.859375 C 454.777344 116.832031 454.285156 114.320312 453.765625 109.757812 C 453.742188 109.566406 453.71875 109.371094 453.6875 109.179688 C 453.675781 109.035156 453.664062 108.886719 453.65625 108.738281 C 453.5625 107.492188 453.410156 105.410156 452.738281 102.953125 C 452.296875 101.347656 451.902344 99.808594 451.539062 98.242188 C 451.5 98.085938 451.460938 97.929688 451.421875 97.773438 C 451.34375 97.476562 451.226562 96.875 451.113281 96.296875 C 450.84375 94.917969 450.476562 93.03125 449.816406 90.960938 C 449.71875 90.648438 449.609375 90.335938 449.488281 90.027344 C 448.734375 88.113281 448.027344 86.128906 447.375 84.132812 C 447.296875 83.890625 447.210938 83.644531 447.117188 83.402344 C 443.042969 72.78125 437.550781 60.296875 427.664062 48.199219 C 416.8125 34.480469 403.902344 23.421875 389.296875 15.316406 C 389.246094 15.289062 389.195312 15.257812 389.148438 15.234375 C 372.398438 6.195312 353.324219 0.964844 333.957031 0.109375 C 331.398438 -0.125 329.214844 0.0703125 327.582031 0.21875 C 327.140625 0.257812 326.539062 0.3125 326.351562 0.316406 C 325.808594 0.308594 325.253906 0.328125 324.703125 0.378906 C 324.425781 0.382812 324.148438 0.367188 323.867188 0.359375 C 322.019531 0.304688 319.273438 0.222656 316.023438 1.015625 C 314.996094 1.21875 313.726562 1.371094 312.386719 1.53125 C 309.488281 1.878906 305.945312 2.300781 302.121094 3.515625 C 291.875 5.546875 282.695312 9.894531 273.421875 14.554688 C 272.914062 14.8125 272.421875 15.09375 271.945312 15.40625 C 270.355469 16.449219 268.726562 17.414062 267.109375 18.273438 C 266.984375 18.34375 266.855469 18.414062 266.730469 18.484375 C 264.535156 19.734375 262.808594 21.140625 261.542969 22.164062 C 261.121094 22.507812 260.539062 22.980469 260.324219 23.121094 C 260.246094 23.171875 260.171875 23.222656 260.097656 23.273438 L 257.21875 25.230469 C 256.511719 25.710938 255.84375 26.253906 255.226562 26.851562 L 252.691406 29.300781 C 252.613281 29.375 252.542969 29.449219 252.46875 29.523438 C 252.183594 29.808594 251.605469 30.292969 251.046875 30.761719 C 249.925781 31.703125 248.535156 32.863281 247.105469 34.371094 C 240.496094 41.171875 234.574219 49.160156 228.484375 59.5 C 228.359375 59.714844 228.238281 59.929688 228.125 60.148438 C 223.757812 68.484375 220.40625 77.785156 217.578125 89.421875 C 217.515625 89.671875 217.464844 89.921875 217.414062 90.175781 C 215.390625 100.863281 215.46875 111.449219 215.8125 120.394531 C 215.835938 121.019531 215.898438 121.644531 216.003906 122.265625 C 217.429688 130.90625 219.429688 141.050781 223.421875 150.785156 C 223.523438 151.042969 223.636719 151.292969 223.753906 151.542969 C 228.5625 161.648438 233.3125 169.429688 238.703125 176.03125 C 238.882812 176.246094 239.066406 176.460938 239.257812 176.667969 C 246.472656 184.550781 252.941406 190.339844 259.605469 194.871094 C 261.207031 195.992188 262.714844 196.773438 263.824219 197.351562 C 264.144531 197.519531 264.582031 197.746094 264.761719 197.851562 C 264.832031 197.902344 264.90625 197.949219 264.980469 197.996094 L 267.367188 199.554688 C 268.347656 200.191406 269.398438 200.714844 270.5 201.109375 C 271.085938 201.320312 271.683594 201.554688 272.269531 201.808594 C 272.449219 201.886719 272.632812 201.960938 272.816406 202.035156 C 273.039062 202.140625 273.25 202.261719 273.46875 202.378906 C 274.691406 203.035156 276.542969 204.027344 278.917969 204.757812 C 279.097656 204.8125 279.277344 204.863281 279.457031 204.910156 C 280.636719 205.222656 281.734375 205.597656 282.820312 206.046875 C 283.503906 206.332031 284.210938 206.566406 284.929688 206.746094 L 286.421875 207.121094 C 293.089844 208.804688 300.585938 210.660156 308.691406 210.5625 C 309.796875 210.683594 310.855469 210.730469 311.851562 210.730469 C 313.8125 210.730469 315.542969 210.550781 316.980469 210.402344 C 317.578125 210.339844 318.371094 210.257812 318.753906 210.246094 C 322.199219 210.472656 324.910156 209.710938 326.429688 209.28125 L 326.488281 209.265625 C 326.808594 209.21875 327.125 209.160156 327.445312 209.09375 C 327.519531 209.085938 327.59375 209.082031 327.667969 209.074219 C 328.875 208.96875 331 208.785156 333.445312 207.984375 C 346.804688 204.347656 359.140625 197.945312 369.148438 189.449219 C 369.273438 189.339844 369.398438 189.230469 369.523438 189.121094 C 391.246094 169.40625 395.519531 146.96875 396.347656 138.152344 C 397.234375 129.457031 396.691406 123.242188 396.410156 120.351562 C 396.414062 120.308594 396.410156 120.269531 396.414062 120.226562 C 396.414062 120.121094 396.414062 120.015625 396.414062 119.914062 C 396.414062 119.769531 396.417969 119.628906 396.417969 119.488281 C 396.414062 119.363281 396.394531 119.242188 396.390625 119.121094 C 396.375 118.828125 396.355469 118.535156 396.324219 118.242188 C 396.300781 118.011719 396.269531 117.789062 396.234375 117.5625 C 396.210938 117.402344 396.199219 117.242188 396.171875 117.082031 C 396.144531 116.941406 396.105469 116.804688 396.074219 116.660156 C 396.050781 116.542969 396.023438 116.425781 395.996094 116.308594 C 395.898438 115.910156 395.792969 115.519531 395.667969 115.136719 C 395.652344 115.097656 395.640625 115.054688 395.628906 115.011719 C 395.605469 114.949219 395.589844 114.882812 395.566406 114.820312 C 394.980469 112.0625 393.648438 106.015625 390.386719 98.460938 C 385.585938 86.765625 373.882812 71.375 355.320312 63.03125 C 355.171875 62.964844 355.019531 62.902344 354.871094 62.839844 C 345.878906 59.144531 335.816406 57.382812 325.75 57.734375 C 323.585938 57.691406 321.804688 58.066406 320.632812 58.375 C 319.113281 58.398438 316.769531 58.621094 314.191406 59.679688 C 312.84375 59.929688 310.699219 60.339844 308.257812 61.460938 C 303.773438 62.851562 300.195312 65.132812 297.480469 66.863281 C 296.8125 67.289062 296.152344 67.714844 295.492188 68.097656 C 294.566406 68.644531 293.699219 69.289062 292.910156 70.015625 C 292.839844 70.058594 292.769531 70.101562 292.699219 70.144531 C 290.796875 71.347656 289.472656 72.703125 288.628906 73.671875 C 287.203125 74.703125 285.964844 75.980469 284.980469 77.445312 L 284.742188 77.800781 C 284.101562 78.425781 283.238281 79.34375 282.390625 80.550781 C 279.605469 84.394531 277.742188 88.328125 276.238281 91.496094 L 275.652344 92.726562 C 275.394531 93.269531 275.167969 93.824219 274.976562 94.394531 C 273.515625 98.6875 272.957031 102.738281 272.507812 105.996094 C 272.429688 106.542969 272.355469 107.082031 272.277344 107.613281 C 272.183594 108.261719 272.128906 108.910156 272.117188 109.5625 C 272.058594 113.21875 272.566406 116.398438 272.972656 118.953125 C 273.121094 119.878906 273.261719 120.753906 273.332031 121.421875 C 273.425781 122.300781 273.597656 123.167969 273.84375 124.015625 C 279.671875 144.003906 296.613281 154.128906 310.859375 154.128906 C 311.300781 154.128906 311.738281 154.121094 312.171875 154.101562 C 320.449219 153.734375 326.859375 146.722656 326.492188 138.449219 C 326.121094 130.171875 319.121094 123.789062 310.839844 124.132812 C 309.699219 124.132812 305.042969 122.316406 302.953125 116.5625 C 302.839844 115.742188 302.714844 114.960938 302.601562 114.238281 C 302.394531 112.949219 302.199219 111.714844 302.136719 110.738281 C 302.164062 110.53125 302.195312 110.320312 302.222656 110.109375 C 302.5 108.113281 302.761719 106.214844 303.179688 104.703125 L 303.347656 104.347656 C 304.347656 102.246094 305.292969 100.242188 306.308594 98.699219 C 306.878906 98.144531 307.640625 97.355469 308.414062 96.316406 C 309.175781 95.679688 309.792969 95.054688 310.28125 94.519531 C 310.90625 94.078125 311.515625 93.609375 312.105469 93.109375 C 312.601562 92.796875 313.101562 92.480469 313.601562 92.164062 C 314.734375 91.441406 316.433594 90.355469 317.117188 90.121094 C 318.152344 89.886719 319.160156 89.539062 320.121094 89.089844 C 320.933594 88.9375 321.992188 88.722656 323.203125 88.34375 C 323.734375 88.304688 324.320312 88.238281 324.949219 88.128906 C 325.789062 88.015625 326.519531 87.855469 327.113281 87.707031 C 332.757812 87.546875 338.316406 88.515625 343.246094 90.5 C 353.027344 94.976562 360.035156 103.457031 362.65625 109.917969 C 362.703125 110.03125 362.75 110.144531 362.800781 110.257812 C 365.003906 115.335938 365.832031 119.210938 366.273438 121.292969 C 366.332031 121.574219 366.386719 121.820312 366.441406 122.058594 C 366.464844 122.386719 366.496094 122.691406 366.519531 122.949219 C 366.730469 125.085938 367.121094 129.070312 366.496094 135.160156 C 366.492188 135.210938 366.488281 135.265625 366.480469 135.3125 C 366.105469 139.40625 363.765625 153.730469 349.546875 166.738281 C 342.804688 172.410156 334.378906 176.699219 325.167969 179.148438 C 325.109375 179.164062 325.046875 179.179688 324.984375 179.199219 C 324.234375 179.265625 323.125 179.367188 321.832031 179.617188 C 320.652344 179.789062 319.644531 180.039062 318.882812 180.246094 C 316.980469 180.246094 315.292969 180.421875 313.886719 180.566406 C 313.21875 180.632812 312.328125 180.726562 311.914062 180.734375 C 310.871094 180.5625 309.8125 180.5 308.757812 180.550781 C 304.546875 180.757812 299.550781 179.496094 293.765625 178.035156 L 293.226562 177.902344 C 291.546875 177.246094 289.816406 176.664062 288.058594 176.164062 C 287.917969 176.09375 287.78125 176.015625 287.644531 175.941406 C 286.714844 175.441406 285.46875 174.777344 283.90625 174.160156 C 283.402344 173.945312 282.894531 173.734375 282.386719 173.535156 L 281.472656 172.941406 C 280.035156 171.972656 278.679688 171.265625 277.679688 170.746094 C 277.347656 170.574219 276.90625 170.34375 276.71875 170.230469 C 276.664062 170.191406 276.605469 170.152344 276.550781 170.117188 C 271.921875 166.976562 267.191406 162.71875 261.683594 156.738281 C 258.023438 152.1875 254.625 146.542969 251.03125 139.042969 C 248.394531 132.480469 246.925781 125.234375 245.757812 118.304688 C 245.5 111.066406 245.492188 103.421875 246.824219 96.117188 C 249 87.269531 251.453125 80.347656 254.53125 74.394531 C 259.324219 66.304688 263.824219 60.203125 268.679688 55.21875 C 268.742188 55.152344 268.808594 55.085938 268.871094 55.019531 C 269.105469 54.769531 269.773438 54.210938 270.308594 53.761719 C 271.257812 52.96875 272.429688 51.988281 273.644531 50.773438 L 275.15625 49.3125 L 276.871094 48.144531 C 278.316406 47.191406 279.496094 46.234375 280.453125 45.457031 C 280.839844 45.144531 281.351562 44.726562 281.613281 44.542969 C 283.632812 43.453125 285.648438 42.265625 287.625 40.996094 C 295.191406 37.207031 302.023438 34.003906 308.578125 32.828125 C 309.410156 32.679688 310.230469 32.460938 311.027344 32.171875 C 312.121094 31.777344 313.984375 31.554688 315.953125 31.320312 C 317.878906 31.089844 320.058594 30.828125 322.421875 30.328125 C 322.605469 30.332031 322.792969 30.34375 322.980469 30.347656 C 323.96875 30.378906 325.269531 30.417969 326.78125 30.3125 C 328.128906 30.292969 329.304688 30.183594 330.285156 30.097656 C 330.65625 30.0625 331.140625 30.019531 331.410156 30.003906 C 331.695312 30.03125 331.976562 30.054688 332.261719 30.0625 C 347.226562 30.671875 361.945312 34.660156 374.824219 41.597656 C 385.792969 47.699219 395.953125 56.449219 404.210938 66.90625 C 404.265625 66.976562 404.324219 67.046875 404.378906 67.117188 C 411.5 75.804688 415.613281 85.070312 418.980469 93.808594 C 419.707031 96.019531 420.488281 98.214844 421.316406 100.359375 C 421.425781 100.792969 421.546875 101.402344 421.671875 102.039062 C 421.855469 102.996094 422.066406 104.074219 422.371094 105.265625 C 422.789062 107.035156 423.230469 108.773438 423.710938 110.527344 C 423.722656 110.667969 423.730469 110.804688 423.738281 110.941406 C 423.789062 111.597656 423.851562 112.46875 423.996094 113.46875 C 424.394531 116.890625 424.78125 119.421875 425.046875 120.980469 C 425.027344 122.554688 425.035156 125.128906 425.179688 128.644531 C 425.195312 129.621094 425.265625 130.472656 425.316406 131.117188 C 425.332031 131.28125 425.347656 131.453125 425.359375 131.628906 C 425.160156 133.414062 424.992188 135.261719 424.855469 137.140625 C 424.734375 138.367188 424.691406 139.488281 424.652344 140.484375 C 424.628906 141.199219 424.601562 141.882812 424.550781 142.378906 C 424.0625 144.675781 423.617188 147.042969 423.230469 149.441406 C 421.253906 158.710938 418.367188 169.597656 412.097656 180.363281 C 412.058594 180.429688 412.019531 180.496094 411.980469 180.566406 C 404.484375 193.910156 394.773438 205.300781 383.113281 214.425781 C 368.863281 225.316406 351.636719 232.988281 333.292969 236.613281 C 332.976562 236.675781 332.667969 236.75 332.359375 236.832031 C 331.980469 236.925781 330.835938 237.019531 330 237.085938 C 328.898438 237.175781 327.558594 237.285156 326.105469 237.496094 C 324.546875 237.632812 323.160156 237.867188 322.015625 238.058594 C 321.390625 238.164062 320.550781 238.304688 320.183594 238.332031 C 320.027344 238.324219 319.871094 238.316406 319.710938 238.3125 C 317.210938 238.238281 314.867188 238.308594 312.597656 238.378906 C 309.445312 238.476562 306.464844 238.570312 304.117188 238.175781 C 303.464844 238.066406 302.804688 238 302.140625 237.976562 C 291.871094 237.636719 281.09375 234.554688 270.941406 231.230469 C 268.097656 230.023438 265.15625 228.855469 262.191406 227.75 C 261.367188 227.410156 260.238281 226.785156 259.042969 226.121094 C 257.773438 225.417969 256.339844 224.621094 254.71875 223.851562 L 251.335938 222.175781 L 248.203125 220.074219 C 246.738281 219.054688 245.304688 218.164062 244.03125 217.375 C 243.125 216.816406 242.265625 216.277344 241.511719 215.769531 C 226.375 198.878906 207.734375 185.527344 187.472656 177.113281 C 187.425781 177.089844 187.378906 177.074219 187.335938 177.054688 C 169.90625 170.019531 151.289062 166.550781 132.035156 166.773438 C 131.9375 166.773438 131.84375 166.773438 131.746094 166.773438 C 115.042969 166.773438 101.300781 170.515625 90.050781 174.183594 C 89.8125 174.261719 89.574219 174.347656 89.339844 174.4375 C 87.292969 175.222656 85.21875 175.949219 83.175781 176.601562 C 82.871094 176.699219 82.566406 176.804688 82.269531 176.921875 C 80.230469 177.71875 78.566406 178.597656 77.230469 179.304688 C 76.675781 179.597656 76.105469 179.898438 75.804688 180.03125 C 75.636719 180.105469 75.472656 180.183594 75.308594 180.265625 C 73.855469 180.96875 72.410156 181.636719 70.882812 182.296875 C 70.835938 182.316406 70.792969 182.335938 70.746094 182.355469 C 68.492188 183.355469 66.832031 184.503906 65.730469 185.265625 C 65.585938 185.367188 65.449219 185.464844 65.308594 185.554688 C 65.152344 185.648438 64.996094 185.746094 64.839844 185.839844 C 61.003906 188.28125 58.8125 189.449219 58.699219 189.507812 C 58.585938 189.570312 58.484375 189.640625 58.375 189.699219 C 58.191406 189.800781 58.011719 189.910156 57.832031 190.019531 C 57.601562 190.160156 57.371094 190.300781 57.152344 190.453125 C 56.925781 190.609375 56.707031 190.773438 56.484375 190.941406 C 56.324219 191.066406 56.164062 191.1875 56.007812 191.320312 C 55.90625 191.402344 55.800781 191.472656 55.703125 191.558594 C 55.683594 191.574219 53.757812 193.25 50.074219 195.976562 C 49.917969 196.09375 49.765625 196.210938 49.613281 196.332031 C 49.496094 196.414062 49.375 196.496094 49.253906 196.578125 C 48.214844 197.285156 46.476562 198.464844 44.675781 200.289062 C 43.578125 201.40625 42.414062 202.542969 41.214844 203.664062 C 41.09375 203.777344 40.972656 203.894531 40.855469 204.011719 C 40.636719 204.230469 40.171875 204.632812 39.722656 205.027344 C 38.617188 205.992188 37.234375 207.191406 35.785156 208.777344 C 35.558594 209.023438 35.339844 209.277344 35.132812 209.539062 C 33.8125 211.191406 32.449219 212.800781 31.078125 214.324219 C 30.90625 214.515625 30.738281 214.714844 30.574219 214.914062 C 23.410156 223.753906 15.347656 234.753906 9.804688 249.367188 C 3.351562 265.644531 0.226562 282.355469 0.519531 299.039062 C 0.519531 299.09375 0.519531 299.148438 0.523438 299.199219 C 1.0625 318.242188 6.070312 337.375 15.003906 354.566406 C 16.082031 356.902344 17.34375 358.691406 18.285156 360.03125 C 18.539062 360.386719 18.882812 360.878906 18.976562 361.03125 C 19.246094 361.519531 19.546875 361.996094 19.871094 362.453125 C 20.015625 362.691406 20.140625 362.9375 20.273438 363.183594 C 21.152344 364.816406 22.457031 367.238281 24.769531 369.65625 C 25.457031 370.441406 26.226562 371.46875 27.039062 372.554688 C 28.785156 374.886719 30.917969 377.738281 33.878906 380.4375 C 41.355469 388.964844 50.8125 395.1875 57.78125 399.769531 C 58.261719 400.085938 58.757812 400.371094 59.273438 400.628906 C 60.96875 401.484375 62.617188 402.410156 64.164062 403.378906 C 64.285156 403.449219 64.402344 403.523438 64.523438 403.59375 C 66.710938 404.875 68.800781 405.675781 70.324219 406.257812 C 70.835938 406.453125 71.535156 406.71875 71.765625 406.835938 C 71.851562 406.878906 71.933594 406.921875 72.019531 406.960938 L 75.15625 408.472656 C 75.914062 408.835938 76.699219 409.136719 77.507812 409.367188 L 80.898438 410.34375 C 81.011719 410.378906 81.128906 410.410156 81.242188 410.441406 C 81.636719 410.542969 82.347656 410.804688 83.035156 411.054688 C 84.402344 411.554688 86.089844 412.171875 88.09375 412.652344 C 97.261719 414.972656 107.140625 416.105469 119.179688 416.214844 C 119.222656 416.214844 119.269531 416.214844 119.3125 416.214844 C 119.515625 416.214844 119.71875 416.210938 119.921875 416.199219 C 129.332031 415.820312 139.066406 414.070312 150.554688 410.699219 C 150.796875 410.628906 151.039062 410.550781 151.28125 410.464844 C 161.558594 406.871094 170.683594 401.511719 178.253906 396.742188 C 178.785156 396.40625 179.296875 396.039062 179.78125 395.640625 C 186.554688 390.078125 194.347656 383.265625 200.773438 374.953125 C 200.941406 374.738281 201.105469 374.515625 201.261719 374.285156 C 207.613281 365.058594 211.976562 357.058594 214.992188 349.101562 C 215.089844 348.839844 215.179688 348.574219 215.265625 348.308594 C 218.488281 338.117188 220.265625 329.617188 220.855469 321.582031 C 221.023438 319.636719 220.949219 317.9375 220.894531 316.6875 C 220.878906 316.320312 220.859375 315.820312 220.859375 315.617188 C 220.867188 315.53125 220.871094 315.449219 220.875 315.363281 L 221.03125 312.515625 C 221.09375 311.347656 221.019531 310.171875 220.8125 309.023438 C 220.695312 308.394531 220.605469 307.789062 220.546875 307.21875 C 220.519531 306.992188 220.492188 306.769531 220.457031 306.542969 C 220.4375 306.296875 220.4375 306.050781 220.429688 305.804688 C 220.382812 304.421875 220.316406 302.332031 219.765625 299.921875 C 219.722656 299.738281 219.679688 299.554688 219.628906 299.375 C 219.308594 298.175781 219.078125 297.03125 218.925781 295.875 C 218.832031 295.144531 218.679688 294.421875 218.480469 293.710938 L 218.066406 292.261719 C 216.1875 285.632812 214.074219 278.167969 209.902344 271.214844 C 208.574219 268.203125 206.902344 265.894531 205.628906 264.136719 C 205.273438 263.648438 204.804688 263 204.605469 262.679688 C 203.078125 259.578125 201.0625 257.609375 199.933594 256.507812 L 199.894531 256.472656 C 199.691406 256.210938 199.476562 255.957031 199.253906 255.710938 C 199.210938 255.648438 199.167969 255.585938 199.121094 255.519531 C 198.378906 254.460938 197.199219 252.773438 195.300781 251.078125 C 185.460938 241.320312 173.742188 233.839844 161.382812 229.425781 C 161.226562 229.371094 161.074219 229.316406 160.917969 229.265625 C 132.980469 220.308594 111.40625 227.828125 103.359375 231.519531 C 95.40625 235.09375 90.296875 238.664062 87.933594 240.351562 C 87.917969 240.359375 87.902344 240.371094 87.886719 240.378906 C 87.855469 240.394531 87.828125 240.414062 87.796875 240.429688 C 87.597656 240.539062 87.394531 240.652344 87.195312 240.773438 C 87.085938 240.835938 86.992188 240.914062 86.886719 240.980469 C 86.675781 241.113281 86.46875 241.253906 86.265625 241.402344 C 86.042969 241.558594 85.824219 241.71875 85.617188 241.886719 C 85.527344 241.960938 85.429688 242.019531 85.34375 242.09375 C 85.230469 242.1875 85.128906 242.289062 85.019531 242.386719 C 84.882812 242.507812 84.742188 242.628906 84.609375 242.757812 C 84.371094 242.984375 84.144531 243.21875 83.925781 243.453125 C 83.84375 243.546875 83.753906 243.632812 83.671875 243.726562 C 83.632812 243.769531 83.59375 243.808594 83.554688 243.851562 C 81.460938 245.738281 76.890625 249.917969 71.976562 256.523438 C 64.246094 266.523438 56.765625 284.355469 58.824219 304.609375 C 58.839844 304.769531 58.859375 304.929688 58.882812 305.089844 C 60.175781 314.722656 63.679688 324.3125 69.023438 332.867188 C 70.0625 334.75 71.273438 336.105469 72.117188 336.960938 C 72.898438 338.265625 74.265625 340.199219 76.488281 341.910156 C 77.378906 342.953125 78.8125 344.609375 81.007812 346.160156 C 84.453125 349.34375 88.222656 351.308594 91.082031 352.796875 C 91.78125 353.160156 92.476562 353.515625 93.136719 353.890625 C 94.074219 354.421875 95.066406 354.851562 96.09375 355.167969 C 96.136719 355.191406 96.175781 355.214844 96.214844 355.234375 C 98.242188 356.316406 100.117188 356.796875 101.394531 357.046875 C 102.988281 357.761719 104.699219 358.191406 106.445312 358.316406 L 106.914062 358.347656 C 107.769531 358.585938 108.988281 358.875 110.453125 359.007812 C 112.160156 359.183594 113.816406 359.25 115.402344 359.25 C 118.191406 359.25 120.753906 359.042969 122.976562 358.863281 L 124.363281 358.753906 C 124.964844 358.707031 125.566406 358.625 126.15625 358.507812 C 130.613281 357.621094 134.402344 356.082031 137.449219 354.84375 C 137.953125 354.636719 138.457031 354.433594 138.953125 354.238281 C 139.554688 353.996094 140.144531 353.71875 140.710938 353.402344 C 143.925781 351.617188 146.4375 349.578125 148.457031 347.941406 C 149.179688 347.351562 149.863281 346.796875 150.40625 346.402344 C 151.109375 345.882812 151.769531 345.304688 152.375 344.675781 C 165.265625 331.210938 168.230469 310.472656 159.261719 296.433594 C 154.800781 289.453125 145.527344 287.410156 138.542969 291.867188 C 131.5625 296.324219 129.519531 305.597656 133.976562 312.582031 C 134.574219 313.554688 135.304688 318.515625 131.363281 323.195312 C 130.71875 323.699219 130.113281 324.191406 129.550781 324.644531 C 128.53125 325.476562 127.550781 326.269531 126.730469 326.816406 C 126.539062 326.894531 126.347656 326.972656 126.152344 327.050781 C 124.28125 327.808594 122.503906 328.53125 120.980469 328.925781 L 120.5625 328.960938 C 118.246094 329.148438 116.042969 329.324219 114.210938 329.21875 C 113.445312 329 112.386719 328.742188 111.101562 328.585938 C 110.175781 328.25 109.328125 328.027344 108.625 327.875 C 107.925781 327.550781 107.207031 327.257812 106.472656 326.992188 C 105.964844 326.722656 105.449219 326.453125 104.929688 326.183594 C 103.734375 325.558594 101.933594 324.621094 101.386719 324.148438 C 100.65625 323.363281 99.851562 322.660156 98.976562 322.050781 C 98.441406 321.425781 97.722656 320.621094 96.792969 319.761719 C 96.5 319.332031 96.15625 318.867188 95.757812 318.390625 C 95.234375 317.707031 94.726562 317.144531 94.296875 316.699219 C 91.335938 311.882812 89.386719 306.589844 88.644531 301.328125 C 87.628906 290.621094 91.46875 280.3125 95.757812 274.808594 C 95.832031 274.710938 95.90625 274.613281 95.980469 274.515625 C 99.277344 270.0625 102.222656 267.410156 103.804688 265.984375 C 103.972656 265.835938 104.121094 265.679688 104.285156 265.527344 C 104.597656 265.316406 104.875 265.117188 105.109375 264.945312 C 106.859375 263.695312 110.117188 261.363281 115.695312 258.863281 C 115.742188 258.84375 115.789062 258.820312 115.835938 258.800781 C 119.570312 257.078125 133.144531 251.945312 151.515625 257.757812 C 159.796875 260.757812 167.726562 265.90625 174.464844 272.664062 C 174.503906 272.707031 174.546875 272.746094 174.585938 272.785156 C 175.015625 273.402344 175.660156 274.3125 176.527344 275.308594 C 177.269531 276.25 177.988281 276.996094 178.550781 277.558594 C 179.503906 279.207031 180.496094 280.582031 181.324219 281.726562 C 181.71875 282.269531 182.242188 282.992188 182.453125 283.347656 C 182.828125 284.332031 183.304688 285.277344 183.875 286.164062 C 186.160156 289.714844 187.570312 294.683594 189.199219 300.4375 L 189.34375 300.945312 C 189.613281 302.722656 189.976562 304.511719 190.425781 306.289062 C 190.433594 306.449219 190.433594 306.609375 190.441406 306.769531 C 190.472656 307.8125 190.519531 309.207031 190.761719 310.847656 C 190.824219 311.398438 190.898438 311.953125 190.980469 312.515625 L 190.921875 313.609375 C 190.804688 315.332031 190.871094 316.855469 190.921875 317.980469 C 190.9375 318.359375 190.957031 318.867188 190.957031 319.082031 C 190.949219 319.152344 190.945312 319.222656 190.9375 319.292969 C 190.539062 324.867188 189.21875 331.089844 186.789062 338.847656 C 184.683594 344.285156 181.496094 350.046875 176.789062 356.917969 C 172.433594 362.46875 166.886719 367.375 161.460938 371.855469 C 155.328125 375.695312 148.71875 379.523438 141.722656 382.019531 C 132.976562 384.5625 125.753906 385.898438 119.058594 386.207031 C 109.625 386.101562 102.089844 385.257812 95.375 383.546875 C 95.292969 383.527344 95.210938 383.507812 95.128906 383.488281 C 94.789062 383.40625 93.976562 383.109375 93.320312 382.871094 C 92.15625 382.445312 90.71875 381.921875 89.054688 381.472656 L 87.027344 380.890625 L 85.132812 379.976562 C 83.597656 379.214844 82.183594 378.671875 81.042969 378.238281 C 80.574219 378.058594 79.953125 377.820312 79.667969 377.6875 C 77.710938 376.484375 75.671875 375.332031 73.578125 374.25 C 66.507812 369.585938 60.316406 365.265625 56.03125 360.1875 C 55.484375 359.542969 54.886719 358.945312 54.242188 358.402344 C 53.359375 357.65625 52.238281 356.160156 51.050781 354.574219 C 49.886719 353.015625 48.566406 351.253906 46.945312 349.449219 C 46.855469 349.289062 46.769531 349.121094 46.683594 348.957031 C 46.214844 348.085938 45.601562 346.949219 44.757812 345.695312 C 44.0625 344.527344 43.375 343.554688 42.804688 342.746094 C 42.59375 342.445312 42.3125 342.050781 42.167969 341.824219 C 42.050781 341.566406 41.925781 341.3125 41.792969 341.058594 C 34.839844 327.800781 30.9375 313.0625 30.507812 298.433594 C 30.300781 285.902344 32.796875 272.730469 37.726562 260.328125 C 37.761719 260.246094 37.792969 260.167969 37.824219 260.085938 C 41.792969 249.570312 47.757812 241.371094 53.640625 234.089844 C 55.164062 232.390625 56.667969 230.617188 58.132812 228.804688 C 58.457031 228.488281 58.925781 228.082031 59.414062 227.65625 C 60.152344 227.011719 60.988281 226.289062 61.871094 225.421875 C 63.214844 224.15625 64.53125 222.875 65.761719 221.628906 C 65.875 221.550781 65.984375 221.476562 66.09375 221.402344 C 66.640625 221.035156 67.359375 220.542969 68.152344 219.917969 C 70.917969 217.863281 72.90625 216.269531 74.128906 215.257812 C 75.503906 214.484375 77.730469 213.1875 80.703125 211.304688 C 81.546875 210.800781 82.257812 210.308594 82.796875 209.9375 C 82.933594 209.839844 83.074219 209.742188 83.222656 209.640625 C 84.9375 208.894531 86.582031 208.136719 88.230469 207.335938 C 89.359375 206.824219 90.351562 206.300781 91.234375 205.835938 C 91.859375 205.503906 92.460938 205.183594 92.910156 204.980469 C 95.167969 204.25 97.445312 203.449219 99.695312 202.59375 C 108.632812 199.695312 119.398438 196.773438 131.753906 196.773438 C 131.851562 196.773438 131.945312 196.773438 132.042969 196.773438 C 132.117188 196.773438 132.195312 196.773438 132.273438 196.773438 C 147.5625 196.566406 162.289062 199.308594 176.03125 204.84375 C 192.570312 211.726562 207.808594 222.792969 220.117188 236.847656 C 220.152344 236.886719 220.1875 236.921875 220.21875 236.957031 C 220.40625 237.167969 220.59375 237.371094 220.792969 237.574219 C 221.058594 237.851562 221.710938 238.792969 222.1875 239.480469 C 222.824219 240.402344 223.597656 241.519531 224.519531 242.6875 C 225.414062 243.960938 226.304688 245.042969 227.039062 245.933594 C 227.441406 246.421875 227.988281 247.078125 228.195312 247.386719 C 228.265625 247.527344 228.335938 247.664062 228.410156 247.800781 C 229.601562 250.015625 230.839844 252.015625 232.039062 253.945312 C 233.699219 256.625 235.265625 259.15625 236.101562 261.386719 C 236.332031 262.003906 236.601562 262.601562 236.914062 263.183594 C 241.753906 272.269531 244.472656 283.132812 246.667969 293.574219 C 247.046875 296.679688 247.503906 299.8125 248.027344 302.902344 C 248.148438 303.792969 248.167969 305.085938 248.191406 306.449219 C 248.21875 307.898438 248.246094 309.539062 248.386719 311.320312 L 248.632812 315.097656 L 248.378906 318.855469 C 248.226562 320.628906 248.175781 322.3125 248.128906 323.804688 C 248.09375 324.871094 248.0625 325.890625 247.996094 326.796875 C 240.9375 348.351562 238.691406 371.171875 241.53125 392.925781 C 241.539062 392.976562 241.546875 393.023438 241.550781 393.074219 C 244.171875 411.683594 250.480469 429.527344 260.304688 446.109375 C 268.679688 460.703125 278.859375 470.804688 287.714844 478.757812 C 287.898438 478.921875 288.085938 479.082031 288.277344 479.238281 C 289.976562 480.621094 291.648438 482.058594 293.242188 483.507812 C 293.476562 483.722656 293.714844 483.925781 293.960938 484.121094 C 295.6875 485.503906 297.296875 486.515625 298.589844 487.328125 C 299.117188 487.660156 299.660156 488 299.929688 488.195312 C 300.070312 488.296875 300.210938 488.398438 300.355469 488.496094 C 301.628906 489.351562 302.9375 490.277344 304.417969 491.375 C 306.417969 492.835938 308.25 493.707031 309.464844 494.28125 C 309.621094 494.351562 309.773438 494.421875 309.917969 494.496094 C 310.078125 494.585938 310.242188 494.675781 310.40625 494.761719 C 314.53125 496.917969 316.640625 498.242188 316.660156 498.253906 C 316.8125 498.351562 316.964844 498.429688 317.117188 498.519531 C 317.160156 498.546875 317.203125 498.570312 317.246094 498.59375 C 317.640625 498.824219 318.042969 499.035156 318.449219 499.222656 C 318.476562 499.234375 318.503906 499.25 318.53125 499.261719 C 318.929688 499.441406 319.332031 499.601562 319.734375 499.742188 C 319.804688 499.765625 319.867188 499.796875 319.9375 499.820312 C 319.960938 499.832031 322.371094 500.65625 326.570312 502.484375 C 326.742188 502.558594 326.914062 502.628906 327.089844 502.699219 C 327.226562 502.761719 327.363281 502.828125 327.503906 502.898438 C 328.628906 503.441406 330.507812 504.347656 332.910156 504.984375 C 332.945312 504.992188 332.984375 505 333.019531 505.011719 C 334.535156 505.402344 336.09375 505.835938 337.652344 506.3125 C 337.8125 506.359375 337.972656 506.40625 338.136719 506.449219 C 338.429688 506.53125 339.007812 506.726562 339.566406 506.921875 C 340.890625 507.378906 342.710938 508.003906 344.835938 508.46875 C 345.152344 508.539062 345.472656 508.597656 345.792969 508.644531 C 347.835938 508.953125 349.914062 509.332031 351.964844 509.765625 C 352.214844 509.820312 352.46875 509.867188 352.722656 509.90625 C 359.679688 511.007812 367.53125 512 376.152344 512 C 381.460938 512 387.066406 511.625 392.9375 510.667969 C 410.269531 508.113281 426.308594 502.460938 440.605469 493.875 C 440.652344 493.847656 440.699219 493.816406 440.742188 493.789062 C 456.960938 483.804688 471.027344 469.902344 481.445312 453.5625 C 482.933594 451.460938 483.855469 449.46875 484.542969 447.980469 C 484.730469 447.582031 484.980469 447.039062 485.066406 446.882812 C 485.351562 446.40625 485.609375 445.914062 485.839844 445.410156 C 485.976562 445.167969 486.128906 444.9375 486.273438 444.699219 C 487.1875 443.21875 488.6875 440.796875 489.628906 437.574219 C 489.964844 436.585938 490.46875 435.410156 491 434.171875 C 492.148438 431.484375 493.554688 428.207031 494.414062 424.285156 C 497.773438 414.414062 498.601562 404.289062 499.207031 393.921875 C 499.242188 393.347656 499.242188 392.773438 499.207031 392.199219 C 499.097656 390.261719 499.074219 388.425781 499.136719 386.582031 Z M 354.589844 449.804688 C 360.054688 449.605469 365.160156 446.40625 367.605469 441.238281 C 364.980469 446.820312 359.589844 449.644531 354.589844 449.804688 Z M 380.707031 104.824219 C 380.054688 104.855469 379.394531 104.929688 378.738281 105.050781 C 379.402344 104.929688 380.058594 104.855469 380.707031 104.824219 Z M 286.964844 266.4375 C 282.597656 270.554688 278.308594 274.949219 274.3125 279.722656 C 272.925781 273.875 271.28125 267.953125 269.148438 262.105469 C 274.902344 263.824219 280.847656 265.363281 286.964844 266.4375 Z M 286.964844 266.4375 " style=" stroke:none;fill-rule:nonzero;fill:rgb(0%,0%,0%);fill-opacity:1;" />
</g>
</svg>