<svg enable-background="new 0 0 512 512" viewBox="0 0 512 512" xmlns="http://www.w3.org/2000/svg"><path d="m506.816 268.181-145.984-87.595 18.219-11.584c3.072-1.963 4.928-5.355 4.928-9.003s-1.856-7.04-4.928-9.003l-117.333-74.665c-3.499-2.219-7.957-2.219-11.456 0l-117.333 74.667c-3.073 1.962-4.929 5.354-4.929 9.002s1.856 7.04 4.928 9.003l18.219 11.605-145.963 87.573c-3.2 1.92-5.184 5.376-5.184 9.109-.021 3.733 1.92 7.211 5.12 9.152l245.333 149.333c1.707 1.045 3.627 1.557 5.547 1.557s3.84-.512 5.547-1.557l245.333-149.332c3.2-1.963 5.12-5.419 5.12-9.152-.021-3.734-1.984-7.19-5.184-9.11zm-250.816-170.197 97.472 62.016-97.472 62.016-97.472-62.016zm-84.736 95.424 78.997 50.261c1.749 1.109 3.755 1.664 5.739 1.664s3.989-.555 5.717-1.664l78.997-50.283 14.059 8.448-98.773 62.87-98.795-62.869zm-139.968 83.947 105.472-63.253 99.371 63.232-100.181 63.744zm224.704 136.81-99.733-60.715 99.733-63.466 99.733 63.467zm120.043-73.066-100.181-63.765 99.371-63.232 105.472 63.275z"/></svg>