    <svg display="none" width="0" height="0" version="1.1" xmlns="http://www.w3.org/2000/svg" xmlns:xlink="http://www.w3.org/1999/xlink">
        <defs>
            <symbol id="icon-tiles" viewBox="0 0 512 512">
                <title>TILES</title>
                <path d="m506.816 268.181-145.984-87.595 18.219-11.584c3.072-1.963 4.928-5.355 4.928-9.003s-1.856-7.04-4.928-9.003l-117.333-74.665c-3.499-2.219-7.957-2.219-11.456 0l-117.333 74.667c-3.073 1.962-4.929 5.354-4.929 9.002s1.856 7.04 4.928 9.003l18.219 11.605-145.963 87.573c-3.2 1.92-5.184 5.376-5.184 9.109-.021 3.733 1.92 7.211 5.12 9.152l245.333 149.333c1.707 1.045 3.627 1.557 5.547 1.557s3.84-.512 5.547-1.557l245.333-149.332c3.2-1.963 5.12-5.419 5.12-9.152-.021-3.734-1.984-7.19-5.184-9.11zm-250.816-170.197 97.472 62.016-97.472 62.016-97.472-62.016zm-84.736 95.424 78.997 50.261c1.749 1.109 3.755 1.664 5.739 1.664s3.989-.555 5.717-1.664l78.997-50.283 14.059 8.448-98.773 62.87-98.795-62.869zm-139.968 83.947 105.472-63.253 99.371 63.232-100.181 63.744zm224.704 136.81-99.733-60.715 99.733-63.466 99.733 63.467zm120.043-73.066-100.181-63.765 99.371-63.232 105.472 63.275z"/>
            </symbol>

            <symbol id="icon-tap" viewBox="-67 0 460 460.1814">
                <title>TAP</title>
                <path d="m301.902344 202.179688h-.667969c-12.808594 0-23.589844 10.886718-23.589844 24.878906v19.394531c0 3.863281-3.136719 7-7 7-3.867187 0-7-3.136719-7-7v-35.8125c0-13.992187-10.160156-25.375-22.964843-25.375-12.875 0-23.035157 11.382813-23.035157 25.375v37.957031c0 3.867188-3.136719 7-7 7-3.867187 0-7-3.132812-7-7v-48.378906c0-13.988281-10.5625-25.039062-23.367187-25.039062h-.710938c-12.484375 0-22.921875 10.480468-22.921875 23.984374v54.476563c0 3.867187-3.136719 7-7 7-3.867187 0-7-3.132813-7-7v-52.898437c0-.171876-.019531-.351563-.019531-.527344 0-.429688.019531-.859375.019531-1.285156v-123.675782c0-13.992187-10.558593-25.371094-23.359375-25.371094-12.804687 0-23.359375 11.375-23.371094 25.355469l-.140624 205.089844c-.003907 2.957031-1.859376 5.59375-4.644532 6.589844-2.78125.996093-5.890625.136719-7.765625-2.148438l-24.488281-29.808593c-6.457031-8.089844-15.988281-13.128907-26.3125-13.914063-10.105469-.667969-20.035156 2.894531-27.410156 9.835937-.085938.078126-.175782.171876-.269532.25l-4.7929682 4.007813 84.9023442 163.160156c13.402343 25.753907 38.746093 41.878907 66.132812 41.878907h98.144531c41.765625 0 75.777344-36.746094 75.820313-81.757813.023437-23.835937.046875-41.714844.066406-56.117187.050781-38.5.066406-52.660157-.03125-95.070313-.03125-13.953125-10.449219-25.054687-23.222656-25.054687zm0 0"/><path d="m55.59375 77.703125c3.867188 0 7-3.132813 7-7-.082031-20.21875 10.65625-38.941406 28.152344-49.074219 17.496094-10.132812 39.078125-10.132812 56.574218 0 17.496094 10.132813 28.234376 28.855469 28.148438 49.074219 0 3.867187 3.136719 7 7 7 3.867188 0 7-3.132813 7-7 .097656-25.226563-13.308594-48.582031-35.140625-61.222656s-48.757813-12.640625-70.589844 0-35.238281 35.996093-35.144531 61.222656c0 3.867187 3.136719 7 7 7zm0 0"/>
            </symbol>
            <symbol id="icon-social" viewBox="0 0 489.9 489.9">
                <title>SOCIAL</title>
                <path d="m302.75 89.8c10.6-23.4 6.4-52-12.9-71.2-24.8-24.8-65.1-24.8-89.9 0s-24.8 65.1 0 89.9c19.3 19.3 47.8 23.5 71.2 12.9l74.3 74.3c3.9-6.4 8.5-12.4 13.9-17.8s11.4-10 17.7-13.8zm-39.9-8.5c-9.9 9.9-25.9 9.9-35.8 0s-9.9-25.9 0-35.8 25.9-9.9 35.8 0 9.9 25.9 0 35.8z"/><path d="m289.85 381.4c-19.3-19.3-47.8-23.5-71.2-12.9l-74.3-74.3c-3.8 6.3-8.4 12.3-13.8 17.7s-11.4 10-17.7 13.8l74.3 74.3c-10.7 23.5-6.4 52 12.8 71.3 24.8 24.8 65.1 24.8 89.9 0s24.8-65.1 0-89.9zm-27 62.9c-9.9 9.9-25.9 9.9-35.8 0s-9.9-25.9 0-35.8 25.9-9.9 35.8 0 9.9 25.9 0 35.8z"/><path d="m471.25 199.8c-24.7-24.7-65-24.7-89.8.1-19.3 19.3-23.5 47.8-12.9 71.2l-74.3 74.3c6.3 3.8 12.3 8.4 17.7 13.8s10 11.4 13.8 17.7l74.3-74.3c23.4 10.6 52 6.4 71.2-12.9 24.8-24.8 24.8-65.1 0-89.9zm-27 63c-9.9 9.9-25.9 9.9-35.8 0s-9.9-25.9 0-35.8 25.9-9.9 35.8 0 9.9 25.9 0 35.8z"/><path d="m195.65 144.4c-6.3-3.8-12.3-8.4-17.7-13.8s-10-11.4-13.8-17.7l-74.3 74.3c-23.4-10.6-52-6.4-71.2 12.9-24.8 24.8-24.8 65.1 0 89.9 24.7 24.7 65 24.7 89.8-.1 19.3-19.3 23.5-47.8 12.9-71.2zm-114.2 118.4c-9.9 9.9-25.9 9.9-35.8 0s-9.9-25.9 0-35.8 25.9-9.9 35.8 0 9.9 25.9 0 35.8z"/>
            </symbol>
            <symbol id="icon-blur" viewBox="0 0 405.333 405.333">
                <title>BLUR</title>
                <path d="m10.667 234.667c-5.867 0-10.667 4.8-10.667 10.666 0 5.867 4.8 10.667 10.667 10.667s10.667-4.8 10.667-10.667c-.001-5.866-4.801-10.666-10.667-10.666z"/><path d="m10.667 149.333c-5.867 0-10.667 4.8-10.667 10.667s4.8 10.667 10.667 10.667 10.667-4.8 10.667-10.667c-.001-5.867-4.801-10.667-10.667-10.667z"/><path d="m160 384c-5.867 0-10.667 4.8-10.667 10.667s4.8 10.667 10.667 10.667 10.667-4.8 10.667-10.667-4.8-10.667-10.667-10.667z"/><path d="m74.667 53.333c-11.733 0-21.333 9.6-21.333 21.333s9.599 21.334 21.333 21.334 21.333-9.6 21.333-21.333-9.6-21.334-21.333-21.334z"/><path d="m74.667 138.667c-11.733 0-21.333 9.6-21.333 21.333s9.6 21.333 21.333 21.333 21.333-9.6 21.333-21.333-9.6-21.333-21.333-21.333z"/><path d="m74.667 224c-11.733 0-21.333 9.6-21.333 21.333s9.6 21.333 21.333 21.333 21.333-9.599 21.333-21.333c0-11.733-9.6-21.333-21.333-21.333z"/><path d="m394.667 170.667c5.867 0 10.667-4.8 10.667-10.667s-4.8-10.667-10.667-10.667-10.667 4.8-10.667 10.667 4.8 10.667 10.667 10.667z"/><path d="m245.333 21.333c5.867 0 10.667-4.8 10.667-10.667 0-5.866-4.8-10.666-10.667-10.666s-10.667 4.8-10.667 10.667c.001 5.866 4.801 10.666 10.667 10.666z"/><path d="m160 96c11.733 0 21.333-9.6 21.333-21.333s-9.6-21.333-21.333-21.333-21.333 9.6-21.333 21.333 9.6 21.333 21.333 21.333z"/><path d="m160 21.333c5.867 0 10.667-4.8 10.667-10.667 0-5.866-4.8-10.666-10.667-10.666s-10.667 4.8-10.667 10.667c0 5.866 4.8 10.666 10.667 10.666z"/><path d="m245.333 96c11.733 0 21.333-9.6 21.333-21.333s-9.6-21.333-21.333-21.333-21.333 9.6-21.333 21.333 9.6 21.333 21.333 21.333z"/><path d="m74.667 309.333c-11.733 0-21.333 9.6-21.333 21.333s9.6 21.333 21.333 21.333 21.333-9.599 21.333-21.332c0-11.734-9.6-21.334-21.333-21.334z"/><path d="m245.333 128c-17.707 0-32 14.293-32 32s14.293 32 32 32 32-14.293 32-32-14.293-32-32-32z"/><path d="m330.667 224c-11.733 0-21.333 9.6-21.333 21.333s9.6 21.333 21.333 21.333 21.333-9.6 21.333-21.333-9.6-21.333-21.333-21.333z"/><path d="m330.667 309.333c-11.733 0-21.333 9.6-21.333 21.333s9.6 21.333 21.333 21.333c11.733.001 21.333-9.599 21.333-21.332 0-11.734-9.6-21.334-21.333-21.334z"/><path d="m330.667 138.667c-11.733 0-21.333 9.6-21.333 21.333s9.6 21.333 21.333 21.333 21.333-9.6 21.333-21.333-9.6-21.333-21.333-21.333z"/><path d="m394.667 234.667c-5.867 0-10.667 4.8-10.667 10.667 0 5.866 4.8 10.666 10.667 10.666s10.667-4.8 10.667-10.667c-.001-5.866-4.801-10.666-10.667-10.666z"/><path d="m330.667 53.333c-11.733 0-21.333 9.6-21.333 21.333s9.599 21.334 21.333 21.334c11.733 0 21.333-9.6 21.333-21.333s-9.6-21.334-21.333-21.334z"/><path d="m160 213.333c-17.707 0-32 14.293-32 32s14.293 32 32 32 32-14.293 32-32-14.293-32-32-32z"/><path d="m160 309.333c-11.733 0-21.333 9.6-21.333 21.333s9.6 21.333 21.333 21.333 21.333-9.6 21.333-21.333-9.6-21.333-21.333-21.333z"/><path d="m160 128c-17.707 0-32 14.293-32 32s14.293 32 32 32 32-14.293 32-32-14.293-32-32-32z"/><path d="m245.333 309.333c-11.733 0-21.333 9.6-21.333 21.333 0 11.734 9.6 21.334 21.333 21.334s21.333-9.6 21.333-21.333c.001-11.734-9.599-21.334-21.333-21.334z"/><path d="m245.333 384c-5.867 0-10.667 4.8-10.667 10.667s4.8 10.667 10.667 10.667 10.667-4.8 10.667-10.667-4.8-10.667-10.667-10.667z"/><path d="m245.333 213.333c-17.707 0-32 14.293-32 32s14.293 32 32 32 32-14.293 32-32-14.293-32-32-32z"/>
            </symbol>
            <symbol id="icon-burst" viewBox="0 0 29.711 29.71">
                <title>BURST</title>
                <path d="m10.161 10.518c-3.367-3.754-7.695-5.119-7.767-5.135-1.066-.231-2.118.445-2.349 1.511-.231 1.065.445 2.116 1.51 2.347 0 0 4.669.763 8.579 5.486 3.251 3.927 3.984 10.042 3.984 10.042l.01.06c.049.283.304.492.6.479.317-.018.563-.289.548-.606 0-.003.135-8.628-5.115-14.184z"/><path d="m17.606 18.373s-.429-4.019 3.179-7.631c2.94-2.946 7.369-3.315 7.465-3.341 1.055-.285 1.676-1.37 1.393-2.423-.284-1.054-1.37-1.676-2.425-1.391 0 0-2.638.885-4.353 1.899-7.588 4.489-6.383 12.846-6.383 12.846.011.272.219.505.499.538.31.035.589-.186.625-.497z"/><path d="m20.646 20.259c3.897-4.53 7.34-5.054 7.393-5.075.751-.32 1.102-1.19.78-1.942-.32-.751-1.189-1.101-1.941-.78 0 0-2.5.878-5.063 3.371-5.254 4.83-4.456 11.583-4.456 11.583.004.226.176.415.403.438.247.023.469-.155.491-.402-.003-.002.231-4.684 2.393-7.193z"/><path d="m7.991 3.251.013.003s1.627.125 3.636 2.673c2.242 2.844 2.684 7.216 2.684 7.216.033.18.193.313.381.309.209-.005.375-.179.37-.388 0 0 .396-5.188-2.375-9.391-1.75-2.654-4.055-3.314-4.137-3.331-.804-.157-1.583.365-1.742 1.169-.156.803.367 1.583 1.17 1.74z"/><path d="m7.555 21.289c-2.6-1.086-4.886-.97-4.97-.957-.809.124-1.365.88-1.242 1.689.124.811.88 1.366 1.69 1.243 0 0 2.534-.48 4.92.407 3.463 1.291 4.593 5.537 4.593 5.537.037.127.162.215.298.199.153-.018.263-.155.247-.309-.002.002.219-5.282-5.536-7.809z"/><path d="m27.709 22.17-.025-.002s-1.203-.438-3.704.638c-3.671 1.574-3.838 5.927-3.838 5.927-.022.122.038.249.155.304.141.063.305.004.368-.136 0 0 .792-2.822 3.371-3.836 1.57-.617 3.243.061 3.37.072.818.084 1.551-.513 1.634-1.331.083-.82-.513-1.552-1.331-1.636z"/><path d="m17.15 4.053c.021.083.087.146.169.167.083.02.17-.006.228-.069l.842-.917 1.202-.319c.083-.022.146-.087.167-.169.021-.083-.006-.169-.067-.228l-.917-.84-.319-1.203c-.021-.082-.087-.146-.169-.167-.083-.02-.17.006-.229.069l-.843.917-1.202.319c-.082.022-.146.087-.166.169-.021.083.007.17.067.228l.917.841z"/><path d="m5.027 18.668c.022.083.087.146.169.167.083.021.169-.006.227-.068l.841-.917 1.203-.317c.082-.021.146-.088.166-.169.021-.084-.006-.17-.068-.229l-.917-.842-.318-1.202c-.022-.082-.087-.146-.169-.166-.083-.021-.17.005-.228.067l-.841.918-1.203.318c-.083.021-.146.087-.167.169-.02.083.006.17.069.229l.917.841z"/><path d="m23.231 10.263c-.022-.083-.088-.146-.17-.167-.082-.02-.169.006-.228.069l-.841.917-1.203.319c-.082.022-.146.087-.166.169-.021.083.006.17.068.228l.918.84.317 1.203c.021.082.087.146.169.166.083.021.17-.005.229-.068l.841-.917 1.203-.319c.082-.022.146-.087.166-.169.021-.083-.006-.17-.069-.228l-.917-.841z"/><path d="m28.539 18.494-.318-1.203c-.021-.082-.088-.146-.17-.166-.083-.021-.169.006-.227.068l-.841.917-1.203.318c-.082.021-.146.087-.166.169-.021.082.006.169.068.228l.917.841.317 1.203c.022.083.087.146.169.167.083.021.169-.007.229-.067l.841-.918 1.203-.318c.082-.021.146-.087.166-.169.021-.083-.007-.169-.069-.228z"/><path d="m1.979 3.392.319 1.203c.022.082.087.146.169.166.083.021.17-.006.228-.069l.841-.917 1.203-.318c.081-.023.145-.087.165-.17s-.007-.169-.07-.227l-.917-.841-.318-1.203c-.022-.082-.087-.146-.169-.166-.083-.02-.17.006-.227.069l-.843.917-1.201.319c-.082.022-.147.087-.167.169s.007.17.069.227z"/>
            </symbol>
            <symbol id="icon-copyItem" viewBox="0 0 59.167 59.167">
                <title>COPY ITEM</title>
                <path d="m46.663 59.167h-44.166c-1.291 0-2.337-1.046-2.337-2.337v-44.165c0-1.291 1.046-2.337 2.337-2.337h44.166c1.291 0 2.337 1.047 2.337 2.337v44.165c0 1.29-1.046 2.337-2.337 2.337zm-41.829-4.675h39.491v-39.49h-39.491z"/><path d="m56.67 48.84h-4.745c-1.291 0-2.337-1.047-2.337-2.337 0-1.291 1.046-2.337 2.337-2.337h2.408v-39.491h-39.492v2.6c0 1.291-1.046 2.337-2.337 2.337s-2.337-1.047-2.337-2.337v-4.938c0-1.29 1.046-2.337 2.337-2.337h44.166c1.291 0 2.337 1.047 2.337 2.337v44.166c0 1.29-1.046 2.337-2.337 2.337z"/>
            </symbol>
            <symbol id="icon-dna" viewBox="0 0 511.99887 511">
                <title>DNA</title>
                <path d="m509.804688 138.890625c-4.308594-7.074219-13.539063-9.316406-20.613282-5.003906-7.234375 4.40625-14.820312 8.082031-22.648437 11.019531l-98.949219-98.953125c2.9375-7.824219 6.609375-15.414063 11.019531-22.648437 4.308594-7.074219 2.070313-16.300782-5.007812-20.613282-7.070313-4.308594-16.300781-2.066406-20.613281 5.003906-7.199219 11.816407-12.796876 24.40625-16.777344 37.433594-.109375.316406-.210938.632813-.292969.953125-8.523437 28.5-9.253906 59.058594-1.746094 88.242188-56.25-14.5-116.085937 1.714843-157.363281 42.988281-41.273438 41.273438-57.484375 101.109375-42.988281 157.359375-29.1875-7.507813-59.753907-6.777344-88.261719 1.75-.304688.082031-.601562.179687-.902344.277344-13.035156 3.984375-25.636718 9.585937-37.460937 16.792969-7.078125 4.308593-9.316407 13.539062-5.007813 20.613281 4.3125 7.074219 13.542969 9.316406 20.613282 5.003906 7.234374-4.40625 14.824218-8.082031 22.652343-11.019531l98.949219 98.953125c-2.933594 7.828125-6.609375 15.414062-11.019531 22.648437-4.308594 7.074219-2.070313 16.304688 5.007812 20.613282 2.4375 1.484374 5.128907 2.191406 7.789063 2.191406 5.058594 0 10-2.558594 12.824218-7.195313 7.199219-11.816406 12.796876-24.40625 16.777344-37.433593.109375-.316407.207032-.628907.292969-.953126 8.523437-28.503906 9.253906-59.0625 1.746094-88.25 13.582031 3.503907 27.367187 5.21875 41.054687 5.21875 43.003906 0 84.996094-16.890624 116.308594-48.199218 41.273438-41.273438 57.484375-101.105469 42.988281-157.351563 13.460938 3.460938 27.21875 5.175781 40.929688 5.175781 15.914062 0 31.761719-2.324218 47.03125-6.863281.445312-.109375.890625-.238281 1.328125-.390625 12.992187-3.980468 25.550781-9.566406 37.335937-16.75 7.074219-4.308594 9.316407-13.539062 5.003907-20.613281zm-178.707032 25.699219 12.988282 3.820312 3.820312 12.988282c4.9375 16.785156 6.460938 34.039062 4.835938 50.878906l-72.523438-72.527344c16.835938-1.621094 34.09375-.097656 50.878906 4.839844zm-7.121094 138.675781-114.742187-114.746094c11.136719-8.894531 23.484375-15.863281 36.550781-20.777343l98.96875 98.96875c-4.914062 13.066406-11.878906 25.417968-20.777344 36.554687zm-57.761718 41.988281-98.972656-98.96875c4.917968-13.066406 11.882812-25.417968 20.777343-36.554687l114.746094 114.746093c-11.136719 8.894532-23.484375 15.863282-36.550781 20.777344zm-186.304688 14.863282c16.945313-1.632813 34.21875-.078126 50.851563 4.8125l12.984375 3.820312 3.820312 12.984375c4.890625 16.636719 6.449219 33.910156 4.8125 50.855469zm100.988282-11.710938-12.984376-3.820312-3.820312-12.988282c-4.9375-16.785156-6.464844-34.039062-4.839844-50.878906l72.523438 72.523438c-16.835938 1.625-34.09375.101562-50.878906-4.835938zm200.339843-200.339844-12.988281-3.820312-3.816406-12.984375c-4.894532-16.636719-6.449219-33.910157-4.816406-50.855469l72.476562 72.472656c-16.949219 1.636719-34.222656.082032-50.855469-4.8125zm0 0"/>
            </symbol>
            <symbol id="icon-duplicate" viewBox="0 0 197.973 197.973">
                <title>DUPLICATE</title>
                <path d="m119.467 197.973h-116.054c-1.886 0-3.413-1.527-3.413-3.413v-116.053c0-1.886 1.527-3.413 3.413-3.413h116.053c1.886 0 3.413 1.527 3.413 3.413v116.053c.001 1.886-1.526 3.413-3.412 3.413zm-112.64-6.826h109.227v-109.227h-109.227z"/><path d="m194.56 122.88h-6.827c-1.886 0-3.413-1.527-3.413-3.413s1.527-3.413 3.413-3.413h3.413v-3.413c0-1.886 1.527-3.413 3.413-3.413s3.413 1.527 3.413 3.413v6.827c.001 1.885-1.526 3.412-3.412 3.412z"/><path d="m178.423 122.88h-9.31c-1.886 0-3.413-1.527-3.413-3.413s1.527-3.413 3.413-3.413h9.31c1.886 0 3.413 1.527 3.413 3.413.001 1.886-1.527 3.413-3.413 3.413zm-18.616 0h-9.31c-1.886 0-3.413-1.527-3.413-3.413s1.527-3.413 3.413-3.413h9.31c1.886 0 3.413 1.527 3.413 3.413s-1.527 3.413-3.413 3.413z"/><path d="m141.187 122.88h-9.31c-1.886 0-3.413-1.527-3.413-3.413s1.527-3.413 3.413-3.413h9.31c1.886 0 3.413 1.527 3.413 3.413.001 1.886-1.527 3.413-3.413 3.413zm-18.618 0h-9.31c-1.886 0-3.413-1.527-3.413-3.413s1.527-3.413 3.413-3.413h9.31c1.886 0 3.413 1.527 3.413 3.413.001 1.886-1.525 3.413-3.413 3.413zm-18.619 0h-9.31c-1.886 0-3.413-1.527-3.413-3.413s1.527-3.413 3.413-3.413h9.31c1.886 0 3.413 1.527 3.413 3.413s-1.526 3.413-3.413 3.413z"/><path d="m85.333 122.88h-6.827c-1.886 0-3.413-1.527-3.413-3.413v-6.827c0-1.886 1.527-3.413 3.413-3.413s3.413 1.527 3.413 3.413v3.413h3.413c1.886 0 3.413 1.527 3.413 3.413.002 1.887-1.526 3.414-3.412 3.414z"/><path d="m78.507 106.743c-1.886 0-3.413-1.527-3.413-3.413v-9.31c0-1.886 1.527-3.413 3.413-3.413s3.413 1.527 3.413 3.413v9.31c0 1.886-1.527 3.413-3.413 3.413zm0-18.616c-1.886 0-3.413-1.527-3.413-3.413v-9.31c0-1.886 1.527-3.413 3.413-3.413s3.413 1.527 3.413 3.413v9.31c0 1.886-1.527 3.413-3.413 3.413z"/><path d="m78.507 69.507c-1.886 0-3.413-1.527-3.413-3.413v-9.31c0-1.886 1.527-3.413 3.413-3.413s3.413 1.527 3.413 3.413v9.31c0 1.886-1.527 3.413-3.413 3.413zm0-18.618c-1.886 0-3.413-1.527-3.413-3.413v-9.31c0-1.886 1.527-3.413 3.413-3.413s3.413 1.527 3.413 3.413v9.31c0 1.888-1.527 3.413-3.413 3.413zm0-18.619c-1.886 0-3.413-1.527-3.413-3.413v-9.31c0-1.886 1.527-3.413 3.413-3.413s3.413 1.527 3.413 3.413v9.31c0 1.887-1.527 3.413-3.413 3.413z"/><path d="m78.507 13.653c-1.886 0-3.413-1.527-3.413-3.413v-6.827c-.001-1.886 1.527-3.413 3.413-3.413h6.827c1.886 0 3.413 1.527 3.413 3.413s-1.527 3.413-3.413 3.413h-3.414v3.413c0 1.887-1.527 3.414-3.413 3.414z"/><path d="m122.569 6.827h-9.31c-1.886 0-3.413-1.527-3.413-3.413s1.528-3.414 3.414-3.414h9.31c1.886 0 3.413 1.527 3.413 3.413s-1.526 3.414-3.414 3.414zm-18.616 0h-9.31c-1.886 0-3.413-1.527-3.413-3.413s1.527-3.414 3.413-3.414h9.31c1.886 0 3.413 1.527 3.413 3.413s-1.525 3.414-3.413 3.414z"/><path d="m178.427 6.827h-9.31c-1.886 0-3.413-1.527-3.413-3.413s1.527-3.414 3.413-3.414h9.31c1.886 0 3.413 1.527 3.413 3.413s-1.527 3.414-3.413 3.414zm-18.62 0h-9.31c-1.886 0-3.413-1.527-3.413-3.413s1.527-3.414 3.413-3.414h9.31c1.886 0 3.413 1.527 3.413 3.413s-1.527 3.414-3.413 3.414zm-18.616 0h-9.31c-1.886 0-3.413-1.527-3.413-3.413s1.527-3.414 3.413-3.414h9.31c1.886 0 3.413 1.527 3.413 3.413s-1.527 3.414-3.413 3.414z"/><path d="m194.56 13.653c-1.886 0-3.413-1.527-3.413-3.413v-3.413h-3.413c-1.886 0-3.413-1.527-3.413-3.413s1.526-3.414 3.412-3.414h6.827c1.886 0 3.413 1.527 3.413 3.413v6.827c0 1.886-1.527 3.413-3.413 3.413z"/><path d="m194.56 50.889c-1.886 0-3.413-1.527-3.413-3.413v-9.31c0-1.886 1.527-3.413 3.413-3.413s3.413 1.527 3.413 3.413v9.31c0 1.888-1.527 3.413-3.413 3.413zm0-18.616c-1.886 0-3.413-1.527-3.413-3.413v-9.31c0-1.886 1.527-3.413 3.413-3.413s3.413 1.527 3.413 3.413v9.31c0 1.887-1.527 3.413-3.413 3.413z"/><path d="m194.56 106.747c-1.886 0-3.413-1.527-3.413-3.413v-9.31c0-1.886 1.527-3.413 3.413-3.413s3.413 1.527 3.413 3.413v9.31c0 1.885-1.527 3.413-3.413 3.413zm0-18.62c-1.886 0-3.413-1.527-3.413-3.413v-9.31c0-1.886 1.527-3.413 3.413-3.413s3.413 1.527 3.413 3.413v9.31c0 1.886-1.527 3.413-3.413 3.413zm0-18.616c-1.886 0-3.413-1.527-3.413-3.413v-9.31c0-1.886 1.527-3.413 3.413-3.413s3.413 1.527 3.413 3.413v9.31c0 1.885-1.527 3.413-3.413 3.413z"/>
            </symbol>
            <symbol id="icon-blocked" viewBox="0 0 32 32">
                <title>BLOCKED</title>
                <path d="m29.561.439c-.586-.586-1.535-.586-2.121 0l-6.318 6.318c-1.623-.492-3.342-.757-5.122-.757-6.979 0-13.028 4.064-16 10 1.285 2.566 3.145 4.782 5.407 6.472l-4.968 4.968c-.586.586-.586 1.535 0 2.121.293.293.677.439 1.061.439s.768-.146 1.061-.439l27-27c.586-.586.586-1.536 0-2.121zm-16.561 9.561c1.32 0 2.44.853 2.841 2.037l-3.804 3.804c-1.184-.401-2.037-1.521-2.037-2.841 0-1.657 1.343-3 3-3zm-9.559 6c1.197-1.891 2.79-3.498 4.67-4.697.122-.078.246-.154.371-.228-.311.854-.482 1.776-.482 2.737 0 1.715.54 3.304 1.459 4.607l-1.904 1.904c-1.639-1.151-3.038-2.621-4.114-4.323z"/><path d="m24 13.813c0-.849-.133-1.667-.378-2.434l-10.056 10.056c.768.245 1.586.378 2.435.378 4.418 0 8-3.582 8-8z"/><path d="m25.938 9.062-2.168 2.168c.04.025.079.049.118.074 1.88 1.199 3.473 2.805 4.67 4.697-1.197 1.891-2.79 3.498-4.67 4.697-2.362 1.507-5.09 2.303-7.889 2.303-1.208 0-2.403-.149-3.561-.439l-2.403 2.403c1.866.671 3.873 1.036 5.964 1.036 6.978 0 13.027-4.064 16-10-1.407-2.81-3.504-5.2-6.062-6.938z"/>
            </symbol>
            <symbol id="icon-eyes" viewBox="0 0 32 32">
                <title>EYES</title>
                <path d="m16 6c-6.979 0-13.028 4.064-16 10 2.972 5.936 9.021 10 16 10s13.027-4.064 16-10c-2.972-5.936-9.021-10-16-10zm7.889 5.303c1.88 1.199 3.473 2.805 4.67 4.697-1.197 1.891-2.79 3.498-4.67 4.697-2.362 1.507-5.09 2.303-7.889 2.303s-5.527-.796-7.889-2.303c-1.88-1.199-3.473-2.805-4.67-4.697 1.197-1.891 2.79-3.498 4.67-4.697.122-.078.246-.154.371-.228-.311.854-.482 1.776-.482 2.737 0 4.418 3.582 8 8 8s8-3.582 8-8c0-.962-.17-1.883-.482-2.737.124.074.248.15.371.228zm-7.889 1.697c0 1.657-1.343 3-3 3s-3-1.343-3-3 1.343-3 3-3 3 1.343 3 3z"/>
            </symbol>
            <symbol id="icon-fade" viewBox="0 0 512 512">
                <title>FADE</title>
                <path d="m115 51h-100c-8.284 0-15 6.716-15 15v380c0 8.284 6.716 15 15 15h100c8.284 0 15-6.716 15-15v-380c0-8.284-6.716-15-15-15z"/><path d="m306 91h-100c-8.284 0-15 6.716-15 15v300c0 8.284 6.716 15 15 15h100c8.284 0 15-6.716 15-15v-300c0-8.284-6.716-15-15-15z"/><path d="m497 131h-100c-8.284 0-15 6.716-15 15v220c0 8.284 6.716 15 15 15h100c8.284 0 15-6.716 15-15v-220c0-8.284-6.716-15-15-15z"/>
            </symbol>
            <symbol id="icon-fast" viewBox="0 0 487.811 487.81">
                <title>FAST</title>
                <path d="m150.463 109.521h150.512c3.955 0 7.16-3.206 7.16-7.161s-3.205-7.161-7.16-7.161h-150.512c-3.955 0-7.161 3.206-7.161 7.161s3.206 7.161 7.161 7.161z"/><path d="m15.853 179.537h150.511c3.955 0 7.161-3.206 7.161-7.161s-3.206-7.16-7.161-7.16h-150.511c-3.955 0-7.161 3.205-7.161 7.16s3.206 7.161 7.161 7.161z"/><path d="m56.258 253.214c0 3.955 3.206 7.162 7.161 7.162h150.511c3.955 0 7.161-3.207 7.161-7.162s-3.206-7.16-7.161-7.16h-150.511c-3.955 0-7.161 3.205-7.161 7.16z"/><path d="m142.396 336.44h-135.235c-3.955 0-7.161 3.205-7.161 7.16s3.206 7.161 7.161 7.161h135.235c3.955 0 7.161-3.206 7.161-7.161s-3.206-7.16-7.161-7.16z"/><path d="m385.729 154.418c21.6 0 39.111-17.513 39.111-39.114s-17.512-39.113-39.111-39.113c-21.605 0-39.119 17.513-39.119 39.113-.001 21.601 17.513 39.114 39.119 39.114z"/><path d="m450.066 143.155c-22.459 31.459-52.533 35.102-84.895 15.89-2.203-1.306-11.977-6.691-14.141-7.977-52.061-30.906-104.061-18.786-138.934 30.05-14.819 20.771 19.455 40.459 34.108 19.93 18.018-25.232 40.929-32.533 65.986-24.541-12.83 22.27-24.047 44.405-39.875 75.853-15.832 31.448-50.787 56.562-84.374 36.92-24.235-14.165-46.09 20.651-21.928 34.772 45.854 26.799 99.619 10.343 127.066-24.493.952.509 1.958.968 3.062 1.354 22.422 7.812 51.814 28.61 60.77 35.981 8.953 7.371 24.336 44.921 33.471 63.788 11.082 22.893 46.871 6.219 35.748-16.771-10.355-21.406-27.736-64.129-41.293-74.938-10.875-8.669-31.988-24.803-49.895-33.956 12.115-23.466 24.729-46.679 38.008-69.491 42.328 12.969 82.561-2.308 111.215-42.446 14.831-20.768-19.435-40.456-34.099-19.925z"/>
            </symbol>
            <symbol id="icon-invert" viewBox="0 0 459 459">
                <title>INVERT</title>
                <path d="m357 229.5c0-71.4-56.1-127.5-127.5-127.5v255c71.4 0 127.5-56.1 127.5-127.5zm51-229.5h-357c-28.05 0-51 22.95-51 51v357c0 28.05 22.95 51 51 51h357c28.05 0 51-22.95 51-51v-357c0-28.05-22.95-51-51-51zm0 408h-178.5v-51c-71.4 0-127.5-56.1-127.5-127.5s56.1-127.5 127.5-127.5v-51h178.5z"/>

            </symbol>
            <symbol id="icon-loop" viewBox="0 0 24.547 24.547">
                <title>LOOP</title>
                <path d="m5.285 24.082c-.111 0-.217-.041-.298-.12l-4.866-4.879c-.161-.159-.161-.422 0-.585l4.866-4.885c.119-.117.298-.155.454-.089.156.06.256.215.256.384v3.021h13.335c.369 0 .67-.301.67-.668v-3.4c0-.111.043-.216.119-.295l3.256-3.269c.118-.118.3-.156.454-.091.157.066.258.22.258.386v7.391c0 2.64-1.395 4.034-4.033 4.034h-14.058v2.652c0 .167-.1.318-.256.38-.05.021-.107.033-.157.033z"/><path d="m1.171 15.378c-.055 0-.108-.012-.159-.033-.156-.063-.258-.213-.258-.383v-7.39c0-2.641 1.392-4.033 4.033-4.033h14.064v-2.659c0-.165.101-.317.256-.385.158-.061.335-.031.455.092l4.864 4.875c.162.162.162.427 0 .588l-4.864 4.882c-.119.121-.296.158-.454.091-.155-.063-.256-.216-.256-.386v-3.014h-13.344c-.367 0-.664.3-.664.669v3.401c0 .11-.043.213-.124.296l-3.258 3.265c-.077.08-.181.124-.291.124z"/>
            </symbol>
            <symbol id="icon-metronome" viewBox="-43 0 512 512">
                <title>METRONOME</title>
                <path d="m86.832031 283.730469-53.925781 228.269531h392.398438l-119.324219-512h-153.75l-22.234375 95.40625c13.507812 6.332031 25.382812 15.597656 34.785156 26.972656l19.199219-82.378906h90.25l72.710937 312h-97.835937v-40h40v-40h-40v-40h40v-40h-40v-101h-40v221.546875l-71.171875-93.816406c6.160156-9.421875 9.753906-20.660157 9.753906-32.730469 0-33.085938-26.917969-60-60-60-6.273438 0-12.316406.972656-18.003906 2.761719l-37.816406-49.847657-31.867188 24.175782 37.726562 49.730468c-6.335937 9.511719-10.039062 20.917969-10.039062 33.179688 0 33.085938 26.914062 60 60 60 6.453125 0 12.671875-1.035156 18.503906-2.933594l82.636719 108.933594h-77.558594l6.425781-27.582031zm-19.144531-97.730469c0-11.027344 8.96875-20 20-20 11.027344 0 20 8.972656 20 20s-8.972656 20-20 20c-11.03125 0-20-8.972656-20-20zm288.578125 206 18.640625 80h-291.601562l18.640624-80zm0 0"/>        
            </symbol>
            <symbol id="icon-mixer" viewBox="0 0 512 512">
                <title>MIXER</title>
                <path d="m308.718 30.2v-30.2h-30v30.2h-123.562v30h26.687v210.133c0 16.569 13.431 30 30 30h156.626c16.569 0 30-13.431 30-30v-30.133h-75v-30h75v-30h-75v-30h75v-30h-75v-30h75v-30h26.687v-30z"/><path d="m358.469 375.333v-45h-136.625v45h-39.047l-17.484 136.667h249.687l-17.484-136.667zm-53.313 83.334h-30v-30h30z"/><path d="m86.844 251.737h65v-30h-35v-97.94h35v-30h-65z"/>
            </symbol>
            <symbol id="icon-projector" viewBox="0 0 507.487 507.487">
                <title>PROJECTOR</title>
                    <path d="m466.487 140.244h-12.487v-11.244c0-24.679-20.078-44.756-44.756-44.756h-311c-24.679 0-44.756 20.077-44.756 44.756v11.244h-12.488c-22.607 0-41 18.393-41 41v168c0 17.314 10.793 32.145 26 38.146v35.854h30v-33h389.272v33h30v-33.958c18.399-4.034 32.215-20.451 32.215-40.042v-168c0-22.608-18.392-41-41-41zm-383-11.244c0-8.137 6.62-14.756 14.756-14.756h311c8.137 0 14.756 6.619 14.756 14.756v11.244h-340.512zm394 220.244c0 6.065-4.935 11-11 11h-425.487c-6.065 0-11-4.935-11-11v-168c0-6.065 4.935-11 11-11h425.487c6.065 0 11 4.935 11 11z"/><path d="m373 195.187c-38.63 0-70.057 31.428-70.057 70.057s31.427 70.056 70.057 70.056 70.057-31.428 70.057-70.057-31.427-70.056-70.057-70.056zm0 110.113c-22.087 0-40.057-17.97-40.057-40.057s17.97-40.057 40.057-40.057 40.057 17.97 40.057 40.057-17.97 40.057-40.057 40.057z"/><path d="m83 250.244h110v30h-110z"/><path d="m232 250.244h35v30h-35z"/><path d="m357.5 250.244h31v30h-31z"/>
            </symbol>
            <symbol id="icon-saturation" viewBox="-151 -33 1065 1065.0001">
                <title>SATURATION</title>
                <path d="m695.523438 396.53125c-30.128907-61.136719-71.964844-125.480469-124.351563-191.230469-88.640625-111.25-175.996094-187.445312-179.675781-190.632812l-19.222656-16.6875-19.429688 16.449219c-3.675781 3.113281-91.148438 77.582031-179.867188 188-52.4375 65.265624-94.308593 129.535156-124.457031 191.042968-38.484375 78.511719-58.003906 153.019532-58.003906 221.4375 0 210.359375 171.148437 381.507813 381.515625 381.507813s381.511719-171.148438 381.511719-381.507813c0-66.757812-19.523438-140.226562-58.019531-218.378906zm0 0"/>
            </symbol>
            <symbol id="icon-snail" viewBox="0 0 512 512">
                <title>SNAIL</title>
                <path d="m375 392c16.539062 0 30-13.460938 30-30v-15c0-43.316406-36.441406-77.328125-79.042969-74.882812-39.125 2.035156-70.957031 37.925781-70.957031 79.980468v54.902344c0 56.175781 44.46875 101.820312 99.992188 104.496094 86.324218-5.210938 157.007812-76.886719 157.007812-164.496094v-15c0-103.242188-90.242188-189.480469-199.636719-179.148438-55.3125 5.265626-103.234375 37.578126-132.363281 83.582032v110.566406c0 24.8125 20.1875 45 45 45v-39.902344c0-57.757812 44.574219-107.078125 99.375-109.949218 62.886719-2.648438 110.625 46.621093 110.625 104.851562v15c0 33.089844-26.910156 60-60 60s-60-26.910156-60-60v-15c0-8.289062 6.710938-15 15-15s15 6.710938 15 15v15c0 16.539062 13.460938 30 30 30zm0 0"/><path d="m22.972656 58.582031 36.671875 101.871094c-17.675781 10.4375-29.644531 29.53125-29.644531 51.546875v165c0 74.558594 60.441406 135 135 135h111.195312c-27.21875-21.777344-45.582031-53.589844-49.679687-90h-1.515625c-41.351562 0-75-33.648438-75-75 0-4.125 0-140.472656 0-131.792969 0-22.398437-11.472656-43.570312-29.640625-54.792969l36.660156-101.832031c13.082031-3.230469 22.980469-14.503906 22.980469-28.582031 0-16.570312-13.429688-30-30-30s-30 13.429688-30 30c0 7.863281 3.183594 14.894531 8.132812 20.242188l-36.769531 102.132812c-.925781-.019531-1.875-.164062-2.789062-.144531l-36.710938-101.984375c4.949219-5.347656 8.136719-12.382813 8.136719-20.246094 0-16.570312-13.429688-30-30-30s-30 13.429688-30 30c0 14.074219 9.898438 25.347656 22.972656 28.582031zm82.027344 198.417969c0 8.289062-6.710938 15-15 15s-15-6.710938-15-15v-30c0-8.289062 6.710938-15 15-15s15 6.710938 15 15zm0 0"/>
            </symbol>
            <symbol id="icon-fast" viewBox="0 0 487.811 487.81">
                <title>FAST</title>
                <path d="m150.463 109.521h150.512c3.955 0 7.16-3.206 7.16-7.161s-3.205-7.161-7.16-7.161h-150.512c-3.955 0-7.161 3.206-7.161 7.161s3.206 7.161 7.161 7.161z"/><path d="m15.853 179.537h150.511c3.955 0 7.161-3.206 7.161-7.161s-3.206-7.16-7.161-7.16h-150.511c-3.955 0-7.161 3.205-7.161 7.16s3.206 7.161 7.161 7.161z"/><path d="m56.258 253.214c0 3.955 3.206 7.162 7.161 7.162h150.511c3.955 0 7.161-3.207 7.161-7.162s-3.206-7.16-7.161-7.16h-150.511c-3.955 0-7.161 3.205-7.161 7.16z"/><path d="m142.396 336.44h-135.235c-3.955 0-7.161 3.205-7.161 7.16s3.206 7.161 7.161 7.161h135.235c3.955 0 7.161-3.206 7.161-7.161s-3.206-7.16-7.161-7.16z"/><path d="m385.729 154.418c21.6 0 39.111-17.513 39.111-39.114s-17.512-39.113-39.111-39.113c-21.605 0-39.119 17.513-39.119 39.113-.001 21.601 17.513 39.114 39.119 39.114z"/><path d="m450.066 143.155c-22.459 31.459-52.533 35.102-84.895 15.89-2.203-1.306-11.977-6.691-14.141-7.977-52.061-30.906-104.061-18.786-138.934 30.05-14.819 20.771 19.455 40.459 34.108 19.93 18.018-25.232 40.929-32.533 65.986-24.541-12.83 22.27-24.047 44.405-39.875 75.853-15.832 31.448-50.787 56.562-84.374 36.92-24.235-14.165-46.09 20.651-21.928 34.772 45.854 26.799 99.619 10.343 127.066-24.493.952.509 1.958.968 3.062 1.354 22.422 7.812 51.814 28.61 60.77 35.981 8.953 7.371 24.336 44.921 33.471 63.788 11.082 22.893 46.871 6.219 35.748-16.771-10.355-21.406-27.736-64.129-41.293-74.938-10.875-8.669-31.988-24.803-49.895-33.956 12.115-23.466 24.729-46.679 38.008-69.491 42.328 12.969 82.561-2.308 111.215-42.446 14.831-20.768-19.435-40.456-34.099-19.925z"/>
            </symbol>
            <symbol id="icon-power" viewBox="0 0 32 32">
                <title>POWER</title>
                <path d="M20 4.581v4.249c1.131 0.494 2.172 1.2 3.071 2.099 1.889 1.889 2.929 4.4 2.929 7.071s-1.040 5.182-2.929 7.071c-1.889 1.889-4.4 2.929-7.071 2.929s-5.182-1.040-7.071-2.929c-1.889-1.889-2.929-4.4-2.929-7.071s1.040-5.182 2.929-7.071c0.899-0.899 1.94-1.606 3.071-2.099v-4.249c-5.783 1.721-10 7.077-10 13.419 0 7.732 6.268 14 14 14s14-6.268 14-14c0-6.342-4.217-11.698-10-13.419zM14 0h4v16h-4z"></path>
            </symbol>
            <symbol id="icon-settings" viewBox="0 0 32 32">
                <title>SETTINGS</title>
                <path d="M29.181 19.070c-1.679-2.908-0.669-6.634 2.255-8.328l-3.145-5.447c-0.898 0.527-1.943 0.829-3.058 0.829-3.361 0-6.085-2.742-6.085-6.125h-6.289c0.008 1.044-0.252 2.103-0.811 3.070-1.679 2.908-5.411 3.897-8.339 2.211l-3.144 5.447c0.905 0.515 1.689 1.268 2.246 2.234 1.676 2.903 0.672 6.623-2.241 8.319l3.145 5.447c0.895-0.522 1.935-0.82 3.044-0.82 3.35 0 6.067 2.725 6.084 6.092h6.289c-0.003-1.034 0.259-2.080 0.811-3.038 1.676-2.903 5.399-3.894 8.325-2.219l3.145-5.447c-0.899-0.515-1.678-1.266-2.232-2.226zM16 22.479c-3.578 0-6.479-2.901-6.479-6.479s2.901-6.479 6.479-6.479c3.578 0 6.479 2.901 6.479 6.479s-2.901 6.479-6.479 6.479z"></path>
            </symbol>
            <symbol id="icon-random" viewBox="0 0 32 32">
                <title>RANDOM</title>
                <path d="M24 22h-3.172l-5-5 5-5h3.172v5l7-7-7-7v5h-4c-0.53 0-1.039 0.211-1.414 0.586l-5.586 5.586-5.586-5.586c-0.375-0.375-0.884-0.586-1.414-0.586h-6v4h5.172l5 5-5 5h-5.172v4h6c0.53 0 1.039-0.211 1.414-0.586l5.586-5.586 5.586 5.586c0.375 0.375 0.884 0.586 1.414 0.586h4v5l7-7-7-7v5z"></path>
            </symbol>
            <symbol id="icon-close-circle" viewBox="0 0 32 32">
                <title>CLOSE</title>
                <path d="M16 0c-8.837 0-16 7.163-16 16s7.163 16 16 16 16-7.163 16-16-7.163-16-16-16zM16 29c-7.18 0-13-5.82-13-13s5.82-13 13-13 13 5.82 13 13-5.82 13-13 13z"></path>
                <path d="M21 8l-5 5-5-5-3 3 5 5-5 5 3 3 5-5 5 5 3-3-5-5 5-5z"></path>
            </symbol>
            <symbol id="icon-clear" viewBox="0 0 512 512">
                <title>CLEAR</title>
                <path d="M512,209.808L327.112,24.919L0,352.031l135.05,135.049H437.02v-30.17H264.899L512,209.808z M147.547,456.911
            l-104.88-104.88l131.556-131.556l142.222,142.222l-94.214,94.214H147.547z"/>
            </symbol>
            <symbol id="icon-flip" viewBox="0 0 452.025 452.025">
                <title>STAGE FLIP</title>
                <path d="M147.912,363.325c-4.7-4.7-12.3-4.7-17,0c-4.7,4.7-4.7,12.3,0,17l13.6,13.6h-55.2c-35.9,0-65-29.2-65-65v-40.3
                c0-6.6-5.4-12-12-12s-12,5.4-12,12v40.3c0,49.1,39.9,89,89,89h55.2l-13.6,13.6c-4.7,4.7-4.7,12.3,0,17c2.3,2.3,5.4,3.5,8.5,3.5
                s6.1-1.2,8.5-3.5l34.1-34.1c4.7-4.7,4.7-12.3,0-17L147.912,363.325z"/>
                <path d="M210.312,0.025h-197.1c-6.6,0-12,5.4-12,12v197.1c0,6.6,5.4,12,12,12h197.1c6.6,0,12-5.4,12-12v-197.1
                    C222.312,5.425,217.012,0.025,210.312,0.025z M198.312,197.125h-173.1v-173.1h173.1V197.125z"/>
                <path d="M362.612,34.125h-55.2l13.6-13.6c4.7-4.7,4.7-12.3,0-17s-12.3-4.7-17,0l-34,34.1c-4.7,4.7-4.7,12.3,0,17l34.1,34.1
                    c2.3,2.3,5.4,3.5,8.5,3.5s6.1-1.2,8.5-3.5c4.7-4.7,4.7-12.3,0-17l-13.6-13.6h55.2c35.9,0,65,29.2,65,65v40.3c0,6.6,5.4,12,12,12
                    s12-5.4,12-12v-40.3C451.712,74.025,411.712,34.125,362.612,34.125z"/>
                <path d="M438.812,428.025c-3.2,0-6.3,1.3-8.5,3.5s-3.5,5.3-3.5,8.5c0,3.1,1.3,6.3,3.5,8.5s5.3,3.5,8.5,3.5s6.3-1.3,8.5-3.5
                    s3.5-5.3,3.5-8.5s-1.3-6.3-3.5-8.5C445.012,429.325,441.912,428.025,438.812,428.025z"/>
                <path d="M389.512,428.025c-6.6,0-12,5.4-12,12s5.4,12,12,12s12-5.4,12-12S396.112,428.025,389.512,428.025z"/>
                <path d="M290.912,428.025c-6.6,0-12,5.4-12,12s5.4,12,12,12s12-5.4,12-12S297.612,428.025,290.912,428.025z"/>
                <path d="M340.212,428.025c-6.6,0-12,5.4-12,12s5.4,12,12,12s12-5.4,12-12S346.812,428.025,340.212,428.025z"/>
                <path d="M241.713,428.025c-3.2,0-6.3,1.3-8.5,3.5s-3.5,5.3-3.5,8.5c0,3.1,1.3,6.3,3.5,8.5s5.3,3.5,8.5,3.5c3.1,0,6.3-1.3,8.5-3.5
                    s3.5-5.3,3.5-8.5s-1.3-6.3-3.5-8.5S244.812,428.025,241.713,428.025z"/>
                <path d="M241.713,378.725c-6.6,0-12,5.4-12,12s5.4,12,12,12s12-5.4,12-12S248.312,378.725,241.713,378.725z"/>
                <path d="M241.713,329.425c-6.6,0-12,5.4-12,12s5.4,12,12,12s12-5.4,12-12S248.312,329.425,241.713,329.425z"/>
                <path d="M241.713,280.125c-6.6,0-12,5.4-12,12s5.4,12,12,12s12-5.4,12-12S248.312,280.125,241.713,280.125z"/>
                <path d="M241.713,230.925c-3.2,0-6.3,1.3-8.5,3.5s-3.5,5.3-3.5,8.5s1.3,6.3,3.5,8.5s5.3,3.5,8.5,3.5c3.1,0,6.3-1.3,8.5-3.5
                    s3.5-5.3,3.5-8.5c0-3.1-1.3-6.3-3.5-8.5C247.912,232.125,244.812,230.925,241.713,230.925z"/>
                <path d="M389.512,230.925c-6.6,0-12,5.4-12,12s5.4,12,12,12s12-5.4,12-12S396.112,230.925,389.512,230.925z"/>
                <path d="M340.212,230.925c-6.6,0-12,5.4-12,12s5.4,12,12,12s12-5.4,12-12S346.812,230.925,340.212,230.925z"/>
                <path d="M290.912,230.925c-6.6,0-12,5.4-12,12s5.4,12,12,12s12-5.4,12-12S297.612,230.925,290.912,230.925z"/>
                <path d="M438.812,230.925c-3.2,0-6.3,1.3-8.5,3.5s-3.5,5.3-3.5,8.5s1.3,6.3,3.5,8.5s5.3,3.5,8.5,3.5s6.3-1.3,8.5-3.5
                    s3.5-5.3,3.5-8.5c0-3.1-1.3-6.3-3.5-8.5C445.012,232.225,441.912,230.925,438.812,230.925z"/>
                <path d="M438.812,280.125c-6.6,0-12,5.4-12,12s5.4,12,12,12s12-5.4,12-12S445.412,280.125,438.812,280.125z"/>
                <path d="M438.812,378.725c-6.6,0-12,5.4-12,12s5.4,12,12,12s12-5.4,12-12S445.412,378.725,438.812,378.725z"/>
                <path d="M438.812,329.425c-6.6,0-12,5.4-12,12s5.4,12,12,12s12-5.4,12-12S445.412,329.425,438.812,329.425z"/>
            </symbol>
            <symbol id="icon-fullscreen" viewBox="0 0 512 512">
                <title>FULLSCREEN</title>
                <polygon points="400,0 400,32 457.376,32 394.176,95.2 416.8,117.824 480,54.624 480,112 512,112 512,0            "/>
                <path d="M192,320h128V192H192V320z M224,224h64v64h-64V224z"/>
                <polygon points="32,54.624 95.2,117.824 117.824,95.2 54.624,32 112,32 112,0 0,0 0,112 32,112            "/>
                <rect x="124.448" y="124.448" transform="matrix(-0.7071 -0.7071 0.7071 -0.7071 140.4486 339.0717)" width="32" height="32"/>
                <rect x="355.522" y="124.463" transform="matrix(-0.7071 -0.7071 0.7071 -0.7071 534.9046 502.4904)" width="32" height="32"/>
                <polygon points="95.2,394.176 32,457.376 32,400 0,400 0,512 112,512 112,480 54.624,480 117.824,416.8            "/>
                <rect x="124.434" y="355.553" transform="matrix(-0.7071 -0.7071 0.7071 -0.7071 -22.9926 733.5828)" width="32" height="32"/>
                <polygon points="480,457.376 416.8,394.176 394.176,416.8 457.376,480 400,480 400,512 512,512 512,400 480,400            "/>
                <rect x="355.507" y="355.52" transform="matrix(-0.7071 -0.7071 0.7071 -0.7071 371.4971 896.9194)" width="32" height="32"/>
            </symbol>
            <symbol id="icon-reset" viewBox="0 0 32 32">
                <title>RESET</title>
                <path d="M24 18c0 4.414-3.586 8-8 8s-8-3.586-8-8 3.586-8 8-8h4l0.023 4.020 6.012-6.020-6.012-6v4h-4.023c-6.625 0-12 5.375-12 12s5.375 12 12 12 12-5.375 12-12h-4z"></path>
            </symbol>
            <symbol id="icon-manufacture" viewBox="-20 -40 661.33331 661">
                <title>ROBOMODE</title>
                <path d="m10 248.832031h55.476562c3.28125 11.832031 8.007813 23.214844 14.085938 33.882813l-39.265625 39.25c-1.875 1.875-2.929687 4.417968-2.929687 7.074218s1.054687 5.199219 2.929687 7.074219l42.421875 42.433594c3.90625 3.898437 10.234375 3.898437 14.140625 0l39.269531-39.273437c10.667969 6.074218 22.039063 10.804687 33.871094 14.082031v55.476562c0 5.523438 4.476562 10 10 10h60c5.523438 0 10-4.476562 10-10v-55.476562c11.832031-3.277344 23.203125-8.007813 33.871094-14.082031l39.269531 39.273437c3.96875 3.75 10.175781 3.75 14.140625 0l42.429688-42.433594c1.875-1.875 2.929687-4.417969 2.929687-7.074219s-1.054687-5.199218-2.929687-7.074218l-39.273438-39.25c6.078125-10.667969 10.804688-22.050782 14.085938-33.882813h55.476562c5.523438 0 10-4.476562 10-10v-60c0-5.519531-4.476562-10-10-10h-55.476562c-3.28125-11.828125-8.007813-23.210937-14.085938-33.878906l39.265625-39.25c1.875-1.875 2.929687-4.417969 2.929687-7.074219s-1.054687-5.199218-2.929687-7.074218l-42.421875-42.433594c-3.90625-3.902344-10.234375-3.902344-14.140625 0l-39.269531 39.273437c-10.667969-6.070312-22.042969-10.800781-33.871094-14.082031v-55.480469c0-5.519531-4.476562-10-10-10h-60c-5.523438 0-10 4.480469-10 10v55.480469c-11.828125 3.28125-23.203125 8.011719-33.871094 14.082031l-39.269531-39.273437c-3.96875-3.75-10.175781-3.75-14.140625 0l-42.429688 42.433594c-1.875 1.875-2.929687 4.417968-2.929687 7.074218s1.054687 5.199219 2.929687 7.074219l39.273438 39.25c-6.078125 10.667969-10.804688 22.050781-14.085938 33.878906h-55.476562c-5.523438 0-10 4.480469-10 10v60c0 5.523438 4.476562 10 10 10zm10-60h53.300781c4.699219 0 8.765625-3.269531 9.769531-7.859375 3.28125-14.976562 9.214844-29.25 17.519532-42.140625 2.535156-3.953125 1.972656-9.144531-1.351563-12.46875l-37.738281-37.738281 28.289062-28.292969 37.730469 37.738281c3.324219 3.332032 8.519531 3.894532 12.480469 1.355469 12.894531-8.300781 27.164062-14.234375 42.140625-17.519531 4.585937-1.007812 7.859375-5.074219 7.859375-9.773438v-53.300781h40v53.300781c0 4.699219 3.273438 8.765626 7.859375 9.773438 14.976563 3.285156 29.246094 9.21875 42.140625 17.519531 3.960938 2.539063 9.15625 1.976563 12.480469-1.355469l37.730469-37.738281 28.28125 28.292969-37.730469 37.726562c-3.332031 3.328126-3.890625 8.523438-1.351563 12.480469 8.304688 12.898438 14.230469 27.167969 17.507813 42.148438 1.007812 4.589843 5.074219 7.863281 9.769531 7.863281h53.3125v40h-53.3125c-4.695312 0-8.761719 3.269531-9.769531 7.859375-3.277344 14.976563-9.207031 29.246094-17.507813 42.128906-2.535156 3.957031-1.972656 9.148438 1.351563 12.472657l37.738281 37.730468-28.289062 28.300782-37.730469-37.742188c-3.324219-3.328125-8.519531-3.890625-12.480469-1.351562-12.886719 8.304687-27.152344 14.238281-42.128906 17.519531-4.59375 1-7.871094 5.070312-7.871094 9.769531v53.300781h-40v-53.300781c0-4.699219-3.277344-8.769531-7.871094-9.769531-14.976562-3.28125-29.242187-9.214844-42.128906-17.519531-3.960938-2.539063-9.15625-1.976563-12.480469 1.351562l-37.730469 37.742188-28.28125-28.292969 37.730469-37.730469c3.332031-3.324219 3.890625-8.519531 1.351563-12.480469-8.304688-12.894531-14.238282-27.167969-17.519532-42.148437-1.007812-4.589844-5.070312-7.851563-9.769531-7.851563h-53.300781zm0 0"/><path d="m210 288.832031c44.183594 0 80-35.8125 80-80 0-44.183593-35.816406-80-80-80s-80 35.816407-80 80c.046875 44.160157 35.839844 79.953125 80 80zm0-140c33.132812 0 60 26.867188 60 60 0 33.136719-26.867188 60-60 60s-60-26.863281-60-60c.035156-33.125 26.875-59.964843 60-60zm0 0"/><path d="m210 318.832031c60.75 0 110-49.246093 110-110 0-60.75-49.25-110-110-110s-110 49.25-110 110c.074219 60.722657 49.277344 109.929688 110 110zm0-200c49.707031 0 90 40.292969 90 90s-40.292969 90-90 90-90-40.292969-90-90c.054688-49.679687 40.316406-89.945312 90-90zm0 0"/><path d="m570 458.832031v-80c0-5.519531-4.476562-10-10-10h-20v-80c0-5.519531-4.476562-10-10-10h-90c-5.523438 0-10 4.480469-10 10v80h-50c-5.523438 0-10 4.480469-10 10v80h-320c-27.601562.035157-49.9648438 22.398438-50 50v20c.0351562 27.605469 22.398438 49.96875 50 50h520c27.601562-.03125 49.964844-22.394531 50-50v-20c-.035156-27.601562-22.398438-49.964843-50-50zm-20 0h-70v-70h70zm-100-160h70v70h-70zm-60 90h70v70h-70zm210 140c0 16.570313-13.433594 30-30 30h-520c-16.566406 0-30-13.429687-30-30v-20c0-16.566406 13.433594-30 30-30h520c16.566406 0 30 13.433594 30 30zm0 0"/><path d="m310 488.832031c-16.566406 0-30 13.433594-30 30 0 16.570313 13.433594 30 30 30s30-13.429687 30-30c0-16.566406-13.433594-30-30-30zm0 40c-5.523438 0-10-4.476562-10-10 0-5.519531 4.476562-10 10-10s10 4.480469 10 10c0 5.523438-4.476562 10-10 10zm0 0"/><path d="m210 488.832031c-16.566406 0-30 13.433594-30 30 0 16.570313 13.433594 30 30 30s30-13.429687 30-30c0-16.566406-13.433594-30-30-30zm0 40c-5.523438 0-10-4.476562-10-10 0-5.519531 4.476562-10 10-10s10 4.480469 10 10c0 5.523438-4.476562 10-10 10zm0 0"/><path d="m410 488.832031c-16.566406 0-30 13.433594-30 30 0 16.570313 13.433594 30 30 30s30-13.429687 30-30c0-16.566406-13.433594-30-30-30zm0 40c-5.523438 0-10-4.476562-10-10 0-5.519531 4.476562-10 10-10s10 4.480469 10 10c0 5.523438-4.476562 10-10 10zm0 0"/><path d="m110 488.832031c-16.566406 0-30 13.433594-30 30 0 16.570313 13.433594 30 30 30s30-13.429687 30-30c0-16.566406-13.433594-30-30-30zm0 40c-5.523438 0-10-4.476562-10-10 0-5.519531 4.476562-10 10-10s10 4.480469 10 10c0 5.523438-4.476562 10-10 10zm0 0"/><path d="m510 488.832031c-16.566406 0-30 13.433594-30 30 0 16.570313 13.433594 30 30 30s30-13.429687 30-30c0-16.566406-13.433594-30-30-30zm0 40c-5.523438 0-10-4.476562-10-10 0-5.519531 4.476562-10 10-10s10 4.480469 10 10c0 5.523438-4.476562 10-10 10zm0 0"/>
            </symbol>
            <symbol id="icon-replay" viewBox="0 -43 512.00003 512">
                <title>REPLAY</title>
                <path d="m469.332031 51.410156h-156.160156l42.242187-36.191406c2.449219-1.941406 3.640626-5.066406 3.105469-8.144531-.535156-3.082031-2.710937-5.621094-5.671875-6.625-2.960937-1-6.230468-.304688-8.527344 1.816406l-59.734374 51.199219c-.085938.070312-.109376.171875-.1875.238281-.605469.597656-1.121094 1.277344-1.527344 2.023437-.183594.246094-.355469.503907-.511719.769532-1.011719 2.1875-1.011719 4.707031 0 6.894531.15625.265625.328125.519531.511719.765625.40625.746094.921875 1.429688 1.527344 2.023438.078124.070312.101562.171874.1875.238281l59.734374 51.203125c2.296876 2.121094 5.566407 2.816406 8.527344 1.8125 2.960938-1 5.136719-3.542969 5.671875-6.621094.535157-3.078125-.65625-6.203125-3.105469-8.148438l-42.242187-36.1875h156.160156c14.140625 0 25.601563 11.460938 25.601563 25.597657v290.136719c0 14.136718-11.460938 25.597656-25.601563 25.597656h-426.664062c-14.140625 0-25.601563-11.460938-25.601563-25.597656v-290.136719c0-14.136719 11.460938-25.597657 25.601563-25.597657h110.933593c4.710938 0 8.53125-3.820312 8.53125-8.535156 0-4.710937-3.820312-8.53125-8.53125-8.53125h-110.933593c-23.554688.027344-42.6406252 19.113282-42.667969 42.664063v290.136719c.0273438 23.550781 19.113281 42.636718 42.667969 42.664062h426.664062c23.554688-.027344 42.640625-19.113281 42.667969-42.664062v-290.136719c-.027344-23.550781-19.113281-42.636719-42.667969-42.664063zm0 0"/>
                <path d="m190.488281 350.074219c3.695313.003906 7.316407-1.019531 10.464844-2.960938l148.058594-91.261719c5.820312-3.558593 9.371093-9.886718 9.371093-16.707031 0-6.824219-3.550781-13.152343-9.371093-16.710937l-148.058594-91.246094c-6.152344-3.785156-13.871094-3.953125-20.183594-.433594-6.265625 3.417969-10.144531 10.003906-10.101562 17.140625v182.496094c-.035157 7.128906 3.84375 13.707031 10.101562 17.125 2.96875 1.667969 6.316407 2.546875 9.71875 2.558594zm-2.753906-202.179688c-.011719-.941406.507813-1.804687 1.347656-2.234375.433594-.246094.925781-.378906 1.425781-.382812.527344 0 1.046876.15625 1.492188.441406l148.085938 91.246094c.753906.46875 1.214843 1.292968 1.214843 2.179687 0 .882813-.460937 1.707031-1.214843 2.175781l-148.085938 91.253907c-.886719.566406-2.015625.585937-2.917969.050781-.839843-.429688-1.359375-1.292969-1.347656-2.234375zm0 0"/>
            </symbol>
            <symbol id="icon-replay-two" viewBox="0 0 314.998 314.998">
                <title>REPLAY</title>
                <g transform="translate(0 -562.36)">
                    <polygon points="128.6,656.912 128.6,656.912 128.6,656.912"/>
                    <path d="M115.5,671.112v97.7c0,10.5,10.5,17.3,19.9,12.6l98.2-48.8c10-5.3,10-20,0-25.2l-98.2-48.8c-2.1-1.1-4.2-1.7-6.8-1.7
                        C121.3,657.412,115.5,663.212,115.5,671.112z M143.3,693.712l52.5,26.3l-52.5,26.3V693.712z"/>
                    <path d="M237.8,590.812c-23.6-12.6-49.3-18.4-74.5-17.9l0,0c-3.7,0-7.4,0.6-11.1,1.1c-28.3,2.6-55.6,14.2-78.7,33.1
                        c-7.3-6.3-17.3-10-27.8-10c-25.2,0-45.7,20.5-45.7,45.7c0,24.7,20.5,45.2,45.7,45.2c24.6,0,45.1-20.5,45.1-45.2
                        c0-4.2-0.6-8.4-1.6-12.6c0.6,0,1.1-0.6,1.6-1.1c37.3-31.6,90.3-37.3,133.9-13.7c43,23.1,67.7,70.4,61.4,119.2
                        s-41.5,88.7-88.7,100.8c-47.8,12.1-98.2-6.3-126.5-46.2c-11.1-15.2-33.6,1.1-22.6,15.8c35.2,49.3,97.1,72.4,155.9,57.2
                        c58.3-14.7,102.4-64,109.7-124.4C321.3,678.012,290.8,619.212,237.8,590.812z M45.7,660.112c-9.9,0-17.8-7.8-17.8-17.3
                        c0-10,7.8-17.9,17.8-17.9c9.4,0,17.3,7.9,17.3,17.9C63,652.212,55.1,660.112,45.7,660.112z"/>
                </g>
            </symbol>
            <symbol id="icon-hold" viewBox="0 0 27.494 27.494">
                <title>BAR TENDER</title>
                <path d="M13.747,0C6.155,0,0,6.154,0,13.747c0,7.594,6.155,13.747,13.747,13.747
                    c7.593,0,13.747-6.153,13.747-13.747C27.494,6.154,21.34,0,13.747,0z M11.937,20.483c0,0.177-0.144,0.322-0.318,0.322h-2.68
                    c-0.177,0-0.317-0.146-0.317-0.322V7.007c0-0.172,0.141-0.317,0.317-0.317h2.68c0.175,0,0.318,0.146,0.318,0.317V20.483z
                     M18.875,20.483c0,0.177-0.145,0.322-0.318,0.322h-2.681c-0.174,0-0.319-0.146-0.319-0.322V7.007c0-0.172,0.146-0.317,0.319-0.317
                    h2.681c0.174,0,0.318,0.146,0.318,0.317V20.483z"/>
            </symbol>
            <symbol id="icon-select-all" viewBox="0 0 384 384">
                <title>STAGE SELECT</title>
                <rect x="0" y="85.333" width="42.667" height="42.667"/>
                <rect x="0" y="170.667" width="42.667" height="42.667"/>
                <path d="M0,42.667h42.667V0C19.093,0,0,19.093,0,42.667z"/>
                <rect x="0" y="256" width="42.667" height="42.667"/>
                <path d="M341.333,0v42.667H384C384,19.093,364.907,0,341.333,0z"/>
                <rect x="170.667" y="0" width="42.667" height="42.667"/>
                <path d="M42.667,384v-42.667H0C0,364.907,19.093,384,42.667,384z"/>
                <rect x="85.333" y="341.333" width="42.667" height="42.667"/>
                <rect x="85.333" y="0" width="42.667" height="42.667"/>
                <path d="M341.333,384C364.907,384,384,364.907,384,341.333h-42.667V384z"/>
                <rect x="341.333" y="170.667" width="42.667" height="42.667"/>
                <rect x="170.667" y="341.333" width="42.667" height="42.667"/>
                <rect x="341.333" y="85.333" width="42.667" height="42.667"/>
                <rect x="341.333" y="256" width="42.667" height="42.667"/>
                <rect x="256" y="341.333" width="42.667" height="42.667"/>
                <path d="M85.333,298.667h213.333V85.333H85.333V298.667z M128,128h128v128H128V128z"/>
                <rect x="256" y="0" width="42.667" height="42.667"/>
            </symbol>
            <symbol id="icon-video" viewBox="0 0 32 32">
                <title>VIDEO MODE</title>
                <path d="M12 9c0-2.761 2.239-5 5-5s5 2.239 5 5c0 2.761-2.239 5-5 5s-5-2.239-5-5zM0 9c0-2.761 2.239-5 5-5s5 2.239 5 5c0 2.761-2.239 5-5 5s-5-2.239-5-5zM24 19v-3c0-1.1-0.9-2-2-2h-20c-1.1 0-2 0.9-2 2v10c0 1.1 0.9 2 2 2h20c1.1 0 2-0.9 2-2v-3l8 5v-14l-8 5zM20 24h-16v-6h16v6z"></path>
            </symbol>
            <symbol id="icon-file-gif" viewBox="0 0 32 32">
                <title>GIF MODE</title>
                <path d="M21 26v2.003c0 1.107-0.894 1.997-1.997 1.997h-15.005c-1.107 0-1.997-0.899-1.997-2.007v-22.985c0-1.109 0.899-2.007 2.009-2.007h9.991v6.002c0 1.111 0.898 1.998 2.006 1.998h4.994v2h-8.993c-1.661 0-3.007 1.342-3.007 2.999v7.002c0 1.656 1.336 2.999 3.007 2.999h8.993zM15 3v5.997c0 0.554 0.451 1.003 0.991 1.003h5.009l-6-7zM11.995 14h17.011c1.092 0 1.995 0.892 1.995 1.992v7.016c0 1.092-0.893 1.992-1.995 1.992h-17.011c-1.092 0-1.995-0.892-1.995-1.992v-7.016c0-1.092 0.893-1.992 1.995-1.992zM17 20v2h-2c-0.556 0-1-0.448-1-1v-3c0-0.556 0.448-1 1-1h3v-1h-2.995c-1.107 0-2.005 0.887-2.005 2.006v2.988c0 1.108 0.894 2.006 2.005 2.006h2.995v-4h-3v1h2zM20 17v5h-1v1h3v-1h-1v-5h1v-1h-3v1h1zM24 19v-2h4v-1h-5v7h1v-3h3v-1h-3z"></path>
            </symbol>
        </defs>
    </svg>
